<?xml version="1.0" standalone="no"?><!DOCTYPE svg PUBLIC "-//W3C//DTD SVG 1.1//EN"
  "http://www.w3.org/Graphics/SVG/1.1/DTD/svg11.dtd">
<svg style="font-family:signika, serif;font-size:12px;" class="highcharts-root"
  height="490" version="1.1" viewBox="0 0 600 490"
  width="600" xmlns="http://www.w3.org/2000/svg">
  <desc>Created with Highcharts 5.0.0</desc>
  <defs>
    <clipPath id="highcharts-27">
      <rect fill="none" height="245" width="517" x="0" y="0"></rect>
    </clipPath>
  </defs>
  <rect class="highcharts-background" fill="#ffffff" height="490" rx="0" ry="0" width="600" x="0"
    y="0"></rect>
  <rect class="highcharts-plot-background" fill="none" height="245" width="517" x="73"
    y="62"></rect>
  <g class="highcharts-grid highcharts-xaxis-grid ">
    <path class="highcharts-grid-line" d="M 331.5 62 L 331.5 307" fill="none" opacity="1"></path>
  </g>
  <g class="highcharts-grid highcharts-yaxis-grid ">
    <path class="highcharts-grid-line" d="M 73 307.5 L 590 307.5" fill="none" opacity="1"
      stroke="#e6e6e6" stroke-width="1"></path>
    <path class="highcharts-grid-line" d="M 73 246.5 L 590 246.5" fill="none" opacity="1"
      stroke="#e6e6e6" stroke-width="1"></path>
    <path class="highcharts-grid-line" d="M 73 185.5 L 590 185.5" fill="none" opacity="1"
      stroke="#e6e6e6" stroke-width="1"></path>
    <path class="highcharts-grid-line" d="M 73 123.5 L 590 123.5" fill="none" opacity="1"
      stroke="#e6e6e6" stroke-width="1"></path>
    <path class="highcharts-grid-line" d="M 73 61.5 L 590 61.5" fill="none" opacity="1"
      stroke="#e6e6e6" stroke-width="1"></path>
  </g>
  <rect class="highcharts-plot-border" fill="none" height="245" width="517" x="73" y="62"></rect>
  <g class="highcharts-axis highcharts-xaxis ">
    <path class="highcharts-tick" d="M 331.5 307 L 331.5 317" fill="none" opacity="1"
      stroke="#ccd6eb" stroke-width="1"></path>
    <path class="highcharts-axis-line" d="M 73 307.5 L 590 307.5" fill="none" stroke="#ccd6eb"
      stroke-width="1"></path>
  </g>
  <g class="highcharts-axis highcharts-yaxis ">
    <text style="color:#666666;fill:#666666;" class="highcharts-axis-title" text-anchor="middle"
      transform="translate(0,0) rotate(270 24.5625 184.5)" x="24.5625" y="184.5">ops/s
    </text>
    <path class="highcharts-axis-line" d="M 73 62 L 73 307" fill="none"></path>
  </g>
  <g class="highcharts-series-group">
    <g class="highcharts-series highcharts-series-0 highcharts-column-series highcharts-color-0 "
      clip-path="url(#highcharts-27)" height="517" transform="translate(73,62) scale(1 1)"
      width="245">
      <rect class="highcharts-point highcharts-color-0" fill="#4572A7" height="160" stroke="#ffffff" stroke-width="1"
        width="46" x="5.5" y="85.5"></rect>
    </g>
    <g class="highcharts-markers highcharts-series-0 highcharts-column-series highcharts-color-0 "
      clip-path="none" height="517" transform="translate(73,62) scale(1 1)" width="245"></g>
    <g
      class="highcharts-series highcharts-series-1 highcharts-errorbar-series highcharts-color-undefined "
      clip-path="url(#highcharts-27)" height="517" transform="translate(73,62) scale(1 1)"
      width="245">
      <g class="highcharts-point">
        <path class="highcharts-boxplot-stem" d="M 28.5 87 L 28.5 82 M 28.5 87 L 28.5 87" fill="none" stroke="#000000"
          stroke-width="1"></path>
        <path class="highcharts-boxplot-whisker" d="M 17 82.5 L 40 82.5 M 17 87.5 L 40 87.5" fill="none" stroke="#000000"
          stroke-width="1"></path>
        <path class="highcharts-boxplot-median" d="M 0 0" fill="none" stroke="#000000"
          stroke-width="2"></path>
      </g>
    </g>
    <g
      class="highcharts-markers highcharts-series-1 highcharts-errorbar-series highcharts-color-undefined "
      clip-path="none" height="517" transform="translate(73,62) scale(1 1)" width="245"></g>
    <g class="highcharts-series highcharts-series-2 highcharts-column-series highcharts-color-1 "
      clip-path="url(#highcharts-27)" height="517" transform="translate(73,62) scale(1 1)"
      width="245">
      <rect class="highcharts-point highcharts-color-1" fill="#AA4643" height="190" stroke="#ffffff" stroke-width="1"
        width="46" x="62.5" y="55.5"></rect>
    </g>
    <g class="highcharts-markers highcharts-series-2 highcharts-column-series highcharts-color-1 "
      clip-path="none" height="517" transform="translate(73,62) scale(1 1)" width="245"></g>
    <g
      class="highcharts-series highcharts-series-3 highcharts-errorbar-series highcharts-color-undefined "
      clip-path="url(#highcharts-27)" height="517" transform="translate(73,62) scale(1 1)"
      width="245">
      <g class="highcharts-point">
        <path class="highcharts-boxplot-stem" d="M 85.5 59 L 85.5 51 M 85.5 59 L 85.5 59" fill="none" stroke="#000000"
          stroke-width="1"></path>
        <path class="highcharts-boxplot-whisker" d="M 74 51.5 L 97 51.5 M 74 59.5 L 97 59.5" fill="none" stroke="#000000"
          stroke-width="1"></path>
        <path class="highcharts-boxplot-median" d="M 0 0" fill="none" stroke="#000000"
          stroke-width="2"></path>
      </g>
    </g>
    <g
      class="highcharts-markers highcharts-series-3 highcharts-errorbar-series highcharts-color-undefined "
      clip-path="none" height="517" transform="translate(73,62) scale(1 1)" width="245"></g>
    <g class="highcharts-series highcharts-series-4 highcharts-column-series highcharts-color-2 "
      clip-path="url(#highcharts-27)" height="517" transform="translate(73,62) scale(1 1)"
      width="245">
      <rect class="highcharts-point highcharts-color-2" fill="#89A54E" height="180" stroke="#ffffff" stroke-width="1"
        width="46" x="120.5" y="65.5"></rect>
    </g>
    <g class="highcharts-markers highcharts-series-4 highcharts-column-series highcharts-color-2 "
      clip-path="none" height="517" transform="translate(73,62) scale(1 1)" width="245"></g>
    <g
      class="highcharts-series highcharts-series-5 highcharts-errorbar-series highcharts-color-undefined "
      clip-path="url(#highcharts-27)" height="517" transform="translate(73,62) scale(1 1)"
      width="245">
      <g class="highcharts-point">
        <path class="highcharts-boxplot-stem" d="M 143.5 72 L 143.5 56 M 143.5 72 L 143.5 72" fill="none" stroke="#000000"
          stroke-width="1"></path>
        <path class="highcharts-boxplot-whisker" d="M 132 56.5 L 155 56.5 M 132 72.5 L 155 72.5" fill="none" stroke="#000000"
          stroke-width="1"></path>
        <path class="highcharts-boxplot-median" d="M 0 0" fill="none" stroke="#000000"
          stroke-width="2"></path>
      </g>
    </g>
    <g
      class="highcharts-markers highcharts-series-5 highcharts-errorbar-series highcharts-color-undefined "
      clip-path="none" height="517" transform="translate(73,62) scale(1 1)" width="245"></g>
    <g class="highcharts-series highcharts-series-6 highcharts-column-series highcharts-color-3 "
      clip-path="url(#highcharts-27)" height="517" transform="translate(73,62) scale(1 1)"
      width="245">
      <rect class="highcharts-point highcharts-color-3" fill="#80699B" height="166" stroke="#ffffff" stroke-width="1"
        width="46" x="177.5" y="79.5"></rect>
    </g>
    <g class="highcharts-markers highcharts-series-6 highcharts-column-series highcharts-color-3 "
      clip-path="none" height="517" transform="translate(73,62) scale(1 1)" width="245"></g>
    <g
      class="highcharts-series highcharts-series-7 highcharts-errorbar-series highcharts-color-undefined "
      clip-path="url(#highcharts-27)" height="517" transform="translate(73,62) scale(1 1)"
      width="245">
      <g class="highcharts-point">
        <path class="highcharts-boxplot-stem" d="M 200.5 81 L 200.5 75 M 200.5 81 L 200.5 81" fill="none" stroke="#000000"
          stroke-width="1"></path>
        <path class="highcharts-boxplot-whisker" d="M 189 75.5 L 212 75.5 M 189 81.5 L 212 81.5" fill="none" stroke="#000000"
          stroke-width="1"></path>
        <path class="highcharts-boxplot-median" d="M 0 0" fill="none" stroke="#000000"
          stroke-width="2"></path>
      </g>
    </g>
    <g
      class="highcharts-markers highcharts-series-7 highcharts-errorbar-series highcharts-color-undefined "
      clip-path="none" height="517" transform="translate(73,62) scale(1 1)" width="245"></g>
    <g class="highcharts-series highcharts-series-8 highcharts-column-series highcharts-color-4 "
      clip-path="url(#highcharts-27)" height="517" transform="translate(73,62) scale(1 1)"
      width="245">
      <rect class="highcharts-point highcharts-color-4" fill="#3D96AE" height="181" stroke="#ffffff" stroke-width="1"
        width="46" x="235.5" y="64.5"></rect>
    </g>
    <g class="highcharts-markers highcharts-series-8 highcharts-column-series highcharts-color-4 "
      clip-path="none" height="517" transform="translate(73,62) scale(1 1)" width="245"></g>
    <g
      class="highcharts-series highcharts-series-9 highcharts-errorbar-series highcharts-color-undefined "
      clip-path="url(#highcharts-27)" height="517" transform="translate(73,62) scale(1 1)"
      width="245">
      <g class="highcharts-point">
        <path class="highcharts-boxplot-stem" d="M 258.5 67 L 258.5 61 M 258.5 67 L 258.5 67" fill="none" stroke="#000000"
          stroke-width="1"></path>
        <path class="highcharts-boxplot-whisker" d="M 247 61.5 L 270 61.5 M 247 67.5 L 270 67.5" fill="none" stroke="#000000"
          stroke-width="1"></path>
        <path class="highcharts-boxplot-median" d="M 0 0" fill="none" stroke="#000000"
          stroke-width="2"></path>
      </g>
    </g>
    <g
      class="highcharts-markers highcharts-series-9 highcharts-errorbar-series highcharts-color-undefined "
      clip-path="none" height="517" transform="translate(73,62) scale(1 1)" width="245"></g>
    <g class="highcharts-series highcharts-series-10 highcharts-column-series highcharts-color-5 "
      clip-path="url(#highcharts-27)" height="517" transform="translate(73,62) scale(1 1)"
      width="245">
      <rect class="highcharts-point highcharts-color-5" fill="#DB843D" height="178" stroke="#ffffff" stroke-width="1"
        width="46" x="292.5" y="67.5"></rect>
    </g>
    <g class="highcharts-markers highcharts-series-10 highcharts-column-series highcharts-color-5 "
      clip-path="none" height="517" transform="translate(73,62) scale(1 1)" width="245"></g>
    <g
      class="highcharts-series highcharts-series-11 highcharts-errorbar-series highcharts-color-undefined "
      clip-path="url(#highcharts-27)" height="517" transform="translate(73,62) scale(1 1)"
      width="245">
      <g class="highcharts-point">
        <path class="highcharts-boxplot-stem" d="M 315.5 74 L 315.5 59 M 315.5 74 L 315.5 74" fill="none" stroke="#000000"
          stroke-width="1"></path>
        <path class="highcharts-boxplot-whisker" d="M 304 59.5 L 327 59.5 M 304 74.5 L 327 74.5" fill="none" stroke="#000000"
          stroke-width="1"></path>
        <path class="highcharts-boxplot-median" d="M 0 0" fill="none" stroke="#000000"
          stroke-width="2"></path>
      </g>
    </g>
    <g
      class="highcharts-markers highcharts-series-11 highcharts-errorbar-series highcharts-color-undefined "
      clip-path="none" height="517" transform="translate(73,62) scale(1 1)" width="245"></g>
    <g class="highcharts-series highcharts-series-12 highcharts-column-series highcharts-color-6 "
      clip-path="url(#highcharts-27)" height="517" transform="translate(73,62) scale(1 1)"
      width="245">
      <rect class="highcharts-point highcharts-color-6" fill="#92A8CD" height="180" stroke="#ffffff" stroke-width="1"
        width="46" x="349.5" y="65.5"></rect>
    </g>
    <g class="highcharts-markers highcharts-series-12 highcharts-column-series highcharts-color-6 "
      clip-path="none" height="517" transform="translate(73,62) scale(1 1)" width="245"></g>
    <g
      class="highcharts-series highcharts-series-13 highcharts-errorbar-series highcharts-color-undefined "
      clip-path="url(#highcharts-27)" height="517" transform="translate(73,62) scale(1 1)"
      width="245">
      <g class="highcharts-point">
        <path class="highcharts-boxplot-stem" d="M 372.5 67 L 372.5 63 M 372.5 67 L 372.5 67" fill="none" stroke="#000000"
          stroke-width="1"></path>
        <path class="highcharts-boxplot-whisker" d="M 361 63.5 L 384 63.5 M 361 67.5 L 384 67.5" fill="none" stroke="#000000"
          stroke-width="1"></path>
        <path class="highcharts-boxplot-median" d="M 0 0" fill="none" stroke="#000000"
          stroke-width="2"></path>
      </g>
    </g>
    <g
      class="highcharts-markers highcharts-series-13 highcharts-errorbar-series highcharts-color-undefined "
      clip-path="none" height="517" transform="translate(73,62) scale(1 1)" width="245"></g>
    <g class="highcharts-series highcharts-series-14 highcharts-column-series highcharts-color-7 "
      clip-path="url(#highcharts-27)" height="517" transform="translate(73,62) scale(1 1)"
      width="245">
      <rect class="highcharts-point highcharts-color-7" fill="#A47D7C" height="110" stroke="#ffffff" stroke-width="1"
        width="46" x="407.5" y="135.5"></rect>
    </g>
    <g class="highcharts-markers highcharts-series-14 highcharts-column-series highcharts-color-7 "
      clip-path="none" height="517" transform="translate(73,62) scale(1 1)" width="245"></g>
    <g
      class="highcharts-series highcharts-series-15 highcharts-errorbar-series highcharts-color-undefined "
      clip-path="url(#highcharts-27)" height="517" transform="translate(73,62) scale(1 1)"
      width="245">
      <g class="highcharts-point">
        <path class="highcharts-boxplot-stem" d="M 430.5 138 L 430.5 131 M 430.5 138 L 430.5 138" fill="none" stroke="#000000"
          stroke-width="1"></path>
        <path class="highcharts-boxplot-whisker" d="M 419 131.5 L 442 131.5 M 419 138.5 L 442 138.5" fill="none" stroke="#000000"
          stroke-width="1"></path>
        <path class="highcharts-boxplot-median" d="M 0 0" fill="none" stroke="#000000"
          stroke-width="2"></path>
      </g>
    </g>
    <g
      class="highcharts-markers highcharts-series-15 highcharts-errorbar-series highcharts-color-undefined "
      clip-path="none" height="517" transform="translate(73,62) scale(1 1)" width="245"></g>
    <g class="highcharts-series highcharts-series-16 highcharts-column-series highcharts-color-8 "
      clip-path="url(#highcharts-27)" height="517" transform="translate(73,62) scale(1 1)"
      width="245">
      <rect class="highcharts-point highcharts-color-8" fill="#B5CA92" height="132" stroke="#ffffff" stroke-width="1"
        width="46" x="464.5" y="113.5"></rect>
    </g>
    <g class="highcharts-markers highcharts-series-16 highcharts-column-series highcharts-color-8 "
      clip-path="none" height="517" transform="translate(73,62) scale(1 1)" width="245"></g>
    <g
      class="highcharts-series highcharts-series-17 highcharts-errorbar-series highcharts-color-undefined "
      clip-path="url(#highcharts-27)" height="517" transform="translate(73,62) scale(1 1)"
      width="245">
      <g class="highcharts-point">
        <path class="highcharts-boxplot-stem" d="M 487.5 114 L 487.5 111 M 487.5 114 L 487.5 114" fill="none" stroke="#000000"
          stroke-width="1"></path>
        <path class="highcharts-boxplot-whisker" d="M 476 111.5 L 499 111.5 M 476 114.5 L 499 114.5" fill="none" stroke="#000000"
          stroke-width="1"></path>
        <path class="highcharts-boxplot-median" d="M 0 0" fill="none" stroke="#000000"
          stroke-width="2"></path>
      </g>
    </g>
    <g
      class="highcharts-markers highcharts-series-17 highcharts-errorbar-series highcharts-color-undefined "
      clip-path="none" height="517" transform="translate(73,62) scale(1 1)" width="245"></g>
  </g>
  <text style="color:#333333;font-size:18px;fill:#333333;width:536px;" class="highcharts-title" text-anchor="middle"
    x="300" y="24">
    <tspan>Throughput scores (ops/s)</tspan>
  </text>
  <text style="color:#666666;fill:#666666;width:536px;" class="highcharts-subtitle" text-anchor="middle"
    x="300" y="46">
    <tspan>c.f.e.DecodeBenchmark</tspan>
  </text>
  <g class="highcharts-legend" transform="translate(140,329)">
    <rect class="highcharts-legend-box" fill="none" height="146" rx="0" ry="0" visibility="visible" width="320"
      x="0" y="0"></rect>
    <g>
      <g>
        <g
          class="highcharts-legend-item highcharts-column-series highcharts-color-0 highcharts-series-0"
          transform="translate(8,3)">
          <text style="color:#333333;font-size:12px;font-weight:bold;cursor:pointer;fill:#333333;"
            text-anchor="start"
            x="21" y="15">run(decodeType=JHEX_TO_CHAR_ARRAY)
          </text>
          <rect class="highcharts-point" fill="#4572A7" height="12" rx="6" ry="6" width="12" x="2"
            y="4"></rect>
        </g>
        <g
          class="highcharts-legend-item highcharts-column-series highcharts-color-1 highcharts-series-2"
          transform="translate(8,18)">
          <text style="color:#333333;font-size:12px;font-weight:bold;cursor:pointer;fill:#333333;" text-anchor="start"
            x="21"
            y="15">run(decodeType=JHEX_CHAR_AT)
          </text>
          <rect class="highcharts-point" fill="#AA4643" height="12" rx="6" ry="6" width="12" x="2"
            y="4"></rect>
        </g>
        <g
          class="highcharts-legend-item highcharts-column-series highcharts-color-2 highcharts-series-4"
          transform="translate(8,33)">
          <text style="color:#333333;font-size:12px;font-weight:bold;cursor:pointer;fill:#333333;" text-anchor="start"
            x="21"
            y="15">run(decodeType=JHEX_CHAR_ITERATOR)
          </text>
          <rect class="highcharts-point" fill="#89A54E" height="12" rx="6" ry="6" width="12" x="2"
            y="4"></rect>
        </g>
        <g
          class="highcharts-legend-item highcharts-column-series highcharts-color-3 highcharts-series-6"
          transform="translate(8,48)">
          <text style="color:#333333;font-size:12px;font-weight:bold;cursor:pointer;fill:#333333;" text-anchor="start"
            x="21"
            y="15">run(decodeType=JHEX_TO_CHAR_ARRAY_CHECKED)
          </text>
          <rect class="highcharts-point" fill="#80699B" height="12" rx="6" ry="6" width="12" x="2"
            y="4"></rect>
        </g>
        <g
          class="highcharts-legend-item highcharts-column-series highcharts-color-4 highcharts-series-8"
          transform="translate(8,63)">
          <text style="color:#333333;font-size:12px;font-weight:bold;cursor:pointer;fill:#333333;" text-anchor="start"
            x="21"
            y="15">run(decodeType=JHEX_CHAR_AT_CHECKED)
          </text>
          <rect class="highcharts-point" fill="#3D96AE" height="12" rx="6" ry="6" width="12" x="2"
            y="4"></rect>
        </g>
        <g
          class="highcharts-legend-item highcharts-column-series highcharts-color-5 highcharts-series-10"
          transform="translate(8,78)">
          <text style="color:#333333;font-size:12px;font-weight:bold;cursor:pointer;fill:#333333;" text-anchor="start"
            x="21"
            y="15">run(decodeType=JHEX_CHAR_ITERATOR_CHECKED)
          </text>
          <rect class="highcharts-point" fill="#DB843D" height="12" rx="6" ry="6" width="12" x="2"
            y="4"></rect>
        </g>
        <g
          class="highcharts-legend-item highcharts-column-series highcharts-color-6 highcharts-series-12"
          transform="translate(8,93)">
          <text style="color:#333333;font-size:12px;font-weight:bold;cursor:pointer;fill:#333333;" text-anchor="start"
            x="21"
            y="15">run(decodeType=GUAVA)
          </text>
          <rect class="highcharts-point" fill="#92A8CD" height="12" rx="6" ry="6" width="12" x="2"
            y="4"></rect>
        </g>
        <g
          class="highcharts-legend-item highcharts-column-series highcharts-color-7 highcharts-series-14"
          transform="translate(8,108)">
          <text style="color:#333333;font-size:12px;font-weight:bold;cursor:pointer;fill:#333333;" text-anchor="start"
            x="21"
            y="15">run(decodeType=COMMONS_CODEC)
          </text>
          <rect class="highcharts-point" fill="#A47D7C" height="12" rx="6" ry="6" width="12" x="2"
            y="4"></rect>
        </g>
        <g
          class="highcharts-legend-item highcharts-column-series highcharts-color-8 highcharts-series-16"
          transform="translate(8,123)">
          <text style="color:#333333;font-size:12px;font-weight:bold;cursor:pointer;fill:#333333;" text-anchor="start"
            x="21"
            y="15">run(decodeType=JMX_DATATYPE_CONVERTER)
          </text>
          <rect class="highcharts-point" fill="#B5CA92" height="12" rx="6" ry="6" width="12" x="2"
            y="4"></rect>
        </g>
      </g>
    </g>
  </g>
  <g class="highcharts-axis-labels highcharts-xaxis-labels "></g>
  <g class="highcharts-axis-labels highcharts-yaxis-labels ">
    <text style="color:#666666;cursor:default;font-size:11px;fill:#666666;width:188px;text-overflow:clip;"
      opacity="1"
      text-anchor="end" transform="translate(0,0)" x="58" y="312">
      <tspan>0</tspan>
    </text>
    <text style="color:#666666;cursor:default;font-size:11px;fill:#666666;width:188px;text-overflow:clip;"
      opacity="1"
      text-anchor="end" transform="translate(0,0)" x="58" y="250">
      <tspan>2.5M</tspan>
    </text>
    <text style="color:#666666;cursor:default;font-size:11px;fill:#666666;width:188px;text-overflow:clip;"
      opacity="1"
      text-anchor="end" transform="translate(0,0)" x="58" y="189">
      <tspan>5M</tspan>
    </text>
    <text style="color:#666666;cursor:default;font-size:11px;fill:#666666;width:188px;text-overflow:clip;"
      opacity="1"
      text-anchor="end" transform="translate(0,0)" x="58" y="128">
      <tspan>7.5M</tspan>
    </text>
    <text style="color:#666666;cursor:default;font-size:11px;fill:#666666;width:188px;text-overflow:clip;"
      opacity="1"
      text-anchor="end" transform="translate(0,0)" x="58" y="67">
      <tspan>10M</tspan>
    </text>
  </g>
  <g style="cursor:default;pointer-events:none;white-space:nowrap;" class="highcharts-label highcharts-tooltip"
    display="none" transform="translate(0,0)">
    <path class="highcharts-label-box highcharts-tooltip-box" d="M 3.5 0.5 L 13.5 0.5 C 16.5 0.5 16.5 0.5 16.5 3.5 L 16.5 13.5 C 16.5 16.5 16.5 16.5 13.5 16.5 L 3.5 16.5 C 0.5 16.5 0.5 16.5 0.5 13.5 L 0.5 3.5 C 0.5 0.5 0.5 0.5 3.5 0.5"
      fill="none"
      stroke="#000000" stroke-opacity="0.049999999999999996" stroke-width="5"
      transform="translate(1, 1)"></path>
    <path class="highcharts-label-box highcharts-tooltip-box" d="M 3.5 0.5 L 13.5 0.5 C 16.5 0.5 16.5 0.5 16.5 3.5 L 16.5 13.5 C 16.5 16.5 16.5 16.5 13.5 16.5 L 3.5 16.5 C 0.5 16.5 0.5 16.5 0.5 13.5 L 0.5 3.5 C 0.5 0.5 0.5 0.5 3.5 0.5"
      fill="none"
      stroke="#000000" stroke-opacity="0.09999999999999999" stroke-width="3"
      transform="translate(1, 1)"></path>
    <path class="highcharts-label-box highcharts-tooltip-box" d="M 3.5 0.5 L 13.5 0.5 C 16.5 0.5 16.5 0.5 16.5 3.5 L 16.5 13.5 C 16.5 16.5 16.5 16.5 13.5 16.5 L 3.5 16.5 C 0.5 16.5 0.5 16.5 0.5 13.5 L 0.5 3.5 C 0.5 0.5 0.5 0.5 3.5 0.5"
      fill="none"
      stroke="#000000" stroke-opacity="0.15" stroke-width="1" transform="translate(1, 1)"></path>
    <path class="highcharts-label-box highcharts-tooltip-box" d="M 3.5 0.5 L 13.5 0.5 C 16.5 0.5 16.5 0.5 16.5 3.5 L 16.5 13.5 C 16.5 16.5 16.5 16.5 13.5 16.5 L 3.5 16.5 C 0.5 16.5 0.5 16.5 0.5 13.5 L 0.5 3.5 C 0.5 0.5 0.5 0.5 3.5 0.5"
      fill="rgb(247,247,247)"
      fill-opacity="0.85"></path>
    <text style="font-size:12px;color:#333333;fill:#333333;" x="8" y="20"></text>
  </g>
</svg>