<?xml version="1.0" standalone="no"?><!DOCTYPE svg PUBLIC "-//W3C//DTD SVG 1.1//EN"
  "http://www.w3.org/Graphics/SVG/1.1/DTD/svg11.dtd">
<svg style="font-family:signika, serif;font-size:12px;" class="highcharts-root"
  height="490" version="1.1" viewBox="0 0 600 490"
  width="600" xmlns="http://www.w3.org/2000/svg">
  <desc>Created with Highcharts 5.0.0</desc>
  <defs>
    <clipPath id="highcharts-165">
      <rect fill="none" height="245" width="509" x="0" y="0"></rect>
    </clipPath>
  </defs>
  <rect class="highcharts-background" fill="#ffffff" height="490" rx="0" ry="0" width="600" x="0"
    y="0"></rect>
  <rect class="highcharts-plot-background" fill="none" height="245" width="509" x="81"
    y="62"></rect>
  <g class="highcharts-grid highcharts-xaxis-grid ">
    <path class="highcharts-grid-line" d="M 335.5 62 L 335.5 307" fill="none" opacity="1"></path>
  </g>
  <g class="highcharts-grid highcharts-yaxis-grid ">
    <path class="highcharts-grid-line" d="M 81 307.5 L 590 307.5" fill="none" opacity="1"
      stroke="#e6e6e6" stroke-width="1"></path>
    <path class="highcharts-grid-line" d="M 81 258.5 L 590 258.5" fill="none" opacity="1"
      stroke="#e6e6e6" stroke-width="1"></path>
    <path class="highcharts-grid-line" d="M 81 209.5 L 590 209.5" fill="none" opacity="1"
      stroke="#e6e6e6" stroke-width="1"></path>
    <path class="highcharts-grid-line" d="M 81 160.5 L 590 160.5" fill="none" opacity="1"
      stroke="#e6e6e6" stroke-width="1"></path>
    <path class="highcharts-grid-line" d="M 81 111.5 L 590 111.5" fill="none" opacity="1"
      stroke="#e6e6e6" stroke-width="1"></path>
    <path class="highcharts-grid-line" d="M 81 61.5 L 590 61.5" fill="none" opacity="1"
      stroke="#e6e6e6" stroke-width="1"></path>
  </g>
  <rect class="highcharts-plot-border" fill="none" height="245" width="509" x="81" y="62"></rect>
  <g class="highcharts-axis highcharts-xaxis ">
    <path class="highcharts-tick" d="M 335.5 307 L 335.5 317" fill="none" opacity="1"
      stroke="#ccd6eb" stroke-width="1"></path>
    <path class="highcharts-axis-line" d="M 81 307.5 L 590 307.5" fill="none" stroke="#ccd6eb"
      stroke-width="1"></path>
  </g>
  <g class="highcharts-axis highcharts-yaxis ">
    <text style="color:#666666;fill:#666666;" class="highcharts-axis-title" text-anchor="middle"
      transform="translate(0,0) rotate(270 24.75 184.5)" x="24.75" y="184.5">ops/s
    </text>
    <path class="highcharts-axis-line" d="M 81 62 L 81 307" fill="none"></path>
  </g>
  <g class="highcharts-series-group">
    <g class="highcharts-series highcharts-series-0 highcharts-column-series highcharts-color-0 "
      clip-path="url(#highcharts-165)" height="509" transform="translate(81,62) scale(1 1)"
      width="245">
      <rect class="highcharts-point highcharts-color-0" fill="#4572A7" height="170" stroke="#ffffff" stroke-width="1"
        width="46" x="5.5" y="75.5"></rect>
    </g>
    <g class="highcharts-markers highcharts-series-0 highcharts-column-series highcharts-color-0 "
      clip-path="none" height="509" transform="translate(81,62) scale(1 1)" width="245"></g>
    <g
      class="highcharts-series highcharts-series-1 highcharts-errorbar-series highcharts-color-undefined "
      clip-path="url(#highcharts-165)" height="509" transform="translate(81,62) scale(1 1)"
      width="245">
      <g class="highcharts-point">
        <path class="highcharts-boxplot-stem" d="M 28.5 87 L 28.5 61 M 28.5 87 L 28.5 87" fill="none" stroke="#000000"
          stroke-width="1"></path>
        <path class="highcharts-boxplot-whisker" d="M 17 61.5 L 40 61.5 M 17 87.5 L 40 87.5" fill="none" stroke="#000000"
          stroke-width="1"></path>
        <path class="highcharts-boxplot-median" d="M 0 0" fill="none" stroke="#000000"
          stroke-width="2"></path>
      </g>
    </g>
    <g
      class="highcharts-markers highcharts-series-1 highcharts-errorbar-series highcharts-color-undefined "
      clip-path="none" height="509" transform="translate(81,62) scale(1 1)" width="245"></g>
    <g class="highcharts-series highcharts-series-2 highcharts-column-series highcharts-color-1 "
      clip-path="url(#highcharts-165)" height="509" transform="translate(81,62) scale(1 1)"
      width="245">
      <rect class="highcharts-point highcharts-color-1" fill="#AA4643" height="201" stroke="#ffffff" stroke-width="1"
        width="46" x="61.5" y="44.5"></rect>
    </g>
    <g class="highcharts-markers highcharts-series-2 highcharts-column-series highcharts-color-1 "
      clip-path="none" height="509" transform="translate(81,62) scale(1 1)" width="245"></g>
    <g
      class="highcharts-series highcharts-series-3 highcharts-errorbar-series highcharts-color-undefined "
      clip-path="url(#highcharts-165)" height="509" transform="translate(81,62) scale(1 1)"
      width="245">
      <g class="highcharts-point">
        <path class="highcharts-boxplot-stem" d="M 84.5 56 L 84.5 31 M 84.5 56 L 84.5 56" fill="none" stroke="#000000"
          stroke-width="1"></path>
        <path class="highcharts-boxplot-whisker" d="M 73 31.5 L 96 31.5 M 73 56.5 L 96 56.5" fill="none" stroke="#000000"
          stroke-width="1"></path>
        <path class="highcharts-boxplot-median" d="M 0 0" fill="none" stroke="#000000"
          stroke-width="2"></path>
      </g>
    </g>
    <g
      class="highcharts-markers highcharts-series-3 highcharts-errorbar-series highcharts-color-undefined "
      clip-path="none" height="509" transform="translate(81,62) scale(1 1)" width="245"></g>
    <g class="highcharts-series highcharts-series-4 highcharts-column-series highcharts-color-2 "
      clip-path="url(#highcharts-165)" height="509" transform="translate(81,62) scale(1 1)"
      width="245">
      <rect class="highcharts-point highcharts-color-2" fill="#89A54E" height="191" stroke="#ffffff" stroke-width="1"
        width="46" x="118.5" y="54.5"></rect>
    </g>
    <g class="highcharts-markers highcharts-series-4 highcharts-column-series highcharts-color-2 "
      clip-path="none" height="509" transform="translate(81,62) scale(1 1)" width="245"></g>
    <g
      class="highcharts-series highcharts-series-5 highcharts-errorbar-series highcharts-color-undefined "
      clip-path="url(#highcharts-165)" height="509" transform="translate(81,62) scale(1 1)"
      width="245">
      <g class="highcharts-point">
        <path class="highcharts-boxplot-stem" d="M 141.5 65 L 141.5 43 M 141.5 65 L 141.5 65" fill="none" stroke="#000000"
          stroke-width="1"></path>
        <path class="highcharts-boxplot-whisker" d="M 130 43.5 L 153 43.5 M 130 65.5 L 153 65.5" fill="none" stroke="#000000"
          stroke-width="1"></path>
        <path class="highcharts-boxplot-median" d="M 0 0" fill="none" stroke="#000000"
          stroke-width="2"></path>
      </g>
    </g>
    <g
      class="highcharts-markers highcharts-series-5 highcharts-errorbar-series highcharts-color-undefined "
      clip-path="none" height="509" transform="translate(81,62) scale(1 1)" width="245"></g>
    <g class="highcharts-series highcharts-series-6 highcharts-column-series highcharts-color-3 "
      clip-path="url(#highcharts-165)" height="509" transform="translate(81,62) scale(1 1)"
      width="245">
      <rect class="highcharts-point highcharts-color-3" fill="#80699B" height="143" stroke="#ffffff" stroke-width="1"
        width="46" x="174.5" y="102.5"></rect>
    </g>
    <g class="highcharts-markers highcharts-series-6 highcharts-column-series highcharts-color-3 "
      clip-path="none" height="509" transform="translate(81,62) scale(1 1)" width="245"></g>
    <g
      class="highcharts-series highcharts-series-7 highcharts-errorbar-series highcharts-color-undefined "
      clip-path="url(#highcharts-165)" height="509" transform="translate(81,62) scale(1 1)"
      width="245">
      <g class="highcharts-point">
        <path class="highcharts-boxplot-stem" d="M 197.5 112 L 197.5 91 M 197.5 112 L 197.5 112" fill="none" stroke="#000000"
          stroke-width="1"></path>
        <path class="highcharts-boxplot-whisker" d="M 186 91.5 L 209 91.5 M 186 112.5 L 209 112.5" fill="none" stroke="#000000"
          stroke-width="1"></path>
        <path class="highcharts-boxplot-median" d="M 0 0" fill="none" stroke="#000000"
          stroke-width="2"></path>
      </g>
    </g>
    <g
      class="highcharts-markers highcharts-series-7 highcharts-errorbar-series highcharts-color-undefined "
      clip-path="none" height="509" transform="translate(81,62) scale(1 1)" width="245"></g>
    <g class="highcharts-series highcharts-series-8 highcharts-column-series highcharts-color-4 "
      clip-path="url(#highcharts-165)" height="509" transform="translate(81,62) scale(1 1)"
      width="245">
      <rect class="highcharts-point highcharts-color-4" fill="#3D96AE" height="173" stroke="#ffffff" stroke-width="1"
        width="46" x="231.5" y="72.5"></rect>
    </g>
    <g class="highcharts-markers highcharts-series-8 highcharts-column-series highcharts-color-4 "
      clip-path="none" height="509" transform="translate(81,62) scale(1 1)" width="245"></g>
    <g
      class="highcharts-series highcharts-series-9 highcharts-errorbar-series highcharts-color-undefined "
      clip-path="url(#highcharts-165)" height="509" transform="translate(81,62) scale(1 1)"
      width="245">
      <g class="highcharts-point">
        <path class="highcharts-boxplot-stem" d="M 254.5 86 L 254.5 58 M 254.5 86 L 254.5 86" fill="none" stroke="#000000"
          stroke-width="1"></path>
        <path class="highcharts-boxplot-whisker" d="M 243 58.5 L 266 58.5 M 243 86.5 L 266 86.5" fill="none" stroke="#000000"
          stroke-width="1"></path>
        <path class="highcharts-boxplot-median" d="M 0 0" fill="none" stroke="#000000"
          stroke-width="2"></path>
      </g>
    </g>
    <g
      class="highcharts-markers highcharts-series-9 highcharts-errorbar-series highcharts-color-undefined "
      clip-path="none" height="509" transform="translate(81,62) scale(1 1)" width="245"></g>
    <g class="highcharts-series highcharts-series-10 highcharts-column-series highcharts-color-5 "
      clip-path="url(#highcharts-165)" height="509" transform="translate(81,62) scale(1 1)"
      width="245">
      <rect class="highcharts-point highcharts-color-5" fill="#DB843D" height="149" stroke="#ffffff" stroke-width="1"
        width="46" x="287.5" y="96.5"></rect>
    </g>
    <g class="highcharts-markers highcharts-series-10 highcharts-column-series highcharts-color-5 "
      clip-path="none" height="509" transform="translate(81,62) scale(1 1)" width="245"></g>
    <g
      class="highcharts-series highcharts-series-11 highcharts-errorbar-series highcharts-color-undefined "
      clip-path="url(#highcharts-165)" height="509" transform="translate(81,62) scale(1 1)"
      width="245">
      <g class="highcharts-point">
        <path class="highcharts-boxplot-stem" d="M 310.5 106 L 310.5 85 M 310.5 106 L 310.5 106" fill="none" stroke="#000000"
          stroke-width="1"></path>
        <path class="highcharts-boxplot-whisker" d="M 299 85.5 L 322 85.5 M 299 106.5 L 322 106.5" fill="none" stroke="#000000"
          stroke-width="1"></path>
        <path class="highcharts-boxplot-median" d="M 0 0" fill="none" stroke="#000000"
          stroke-width="2"></path>
      </g>
    </g>
    <g
      class="highcharts-markers highcharts-series-11 highcharts-errorbar-series highcharts-color-undefined "
      clip-path="none" height="509" transform="translate(81,62) scale(1 1)" width="245"></g>
    <g class="highcharts-series highcharts-series-12 highcharts-column-series highcharts-color-6 "
      clip-path="url(#highcharts-165)" height="509" transform="translate(81,62) scale(1 1)"
      width="245">
      <rect class="highcharts-point highcharts-color-6" fill="#92A8CD" height="63" stroke="#ffffff" stroke-width="1"
        width="46" x="344.5" y="182.5"></rect>
    </g>
    <g class="highcharts-markers highcharts-series-12 highcharts-column-series highcharts-color-6 "
      clip-path="none" height="509" transform="translate(81,62) scale(1 1)" width="245"></g>
    <g
      class="highcharts-series highcharts-series-13 highcharts-errorbar-series highcharts-color-undefined "
      clip-path="url(#highcharts-165)" height="509" transform="translate(81,62) scale(1 1)"
      width="245">
      <g class="highcharts-point">
        <path class="highcharts-boxplot-stem" d="M 367.5 187 L 367.5 177 M 367.5 187 L 367.5 187" fill="none" stroke="#000000"
          stroke-width="1"></path>
        <path class="highcharts-boxplot-whisker" d="M 356 177.5 L 379 177.5 M 356 187.5 L 379 187.5" fill="none" stroke="#000000"
          stroke-width="1"></path>
        <path class="highcharts-boxplot-median" d="M 0 0" fill="none" stroke="#000000"
          stroke-width="2"></path>
      </g>
    </g>
    <g
      class="highcharts-markers highcharts-series-13 highcharts-errorbar-series highcharts-color-undefined "
      clip-path="none" height="509" transform="translate(81,62) scale(1 1)" width="245"></g>
    <g class="highcharts-series highcharts-series-14 highcharts-column-series highcharts-color-7 "
      clip-path="url(#highcharts-165)" height="509" transform="translate(81,62) scale(1 1)"
      width="245">
      <rect class="highcharts-point highcharts-color-7" fill="#A47D7C" height="36" stroke="#ffffff" stroke-width="1"
        width="46" x="401.5" y="209.5"></rect>
    </g>
    <g class="highcharts-markers highcharts-series-14 highcharts-column-series highcharts-color-7 "
      clip-path="none" height="509" transform="translate(81,62) scale(1 1)" width="245"></g>
    <g
      class="highcharts-series highcharts-series-15 highcharts-errorbar-series highcharts-color-undefined "
      clip-path="url(#highcharts-165)" height="509" transform="translate(81,62) scale(1 1)"
      width="245">
      <g class="highcharts-point">
        <path class="highcharts-boxplot-stem" d="M 424.5 210 L 424.5 206 M 424.5 210 L 424.5 210" fill="none" stroke="#000000"
          stroke-width="1"></path>
        <path class="highcharts-boxplot-whisker" d="M 413 206.5 L 436 206.5 M 413 210.5 L 436 210.5" fill="none" stroke="#000000"
          stroke-width="1"></path>
        <path class="highcharts-boxplot-median" d="M 0 0" fill="none" stroke="#000000"
          stroke-width="2"></path>
      </g>
    </g>
    <g
      class="highcharts-markers highcharts-series-15 highcharts-errorbar-series highcharts-color-undefined "
      clip-path="none" height="509" transform="translate(81,62) scale(1 1)" width="245"></g>
    <g class="highcharts-series highcharts-series-16 highcharts-column-series highcharts-color-8 "
      clip-path="url(#highcharts-165)" height="509" transform="translate(81,62) scale(1 1)"
      width="245">
      <rect class="highcharts-point highcharts-color-8" fill="#B5CA92" height="49" stroke="#ffffff" stroke-width="1"
        width="46" x="457.5" y="196.5"></rect>
    </g>
    <g class="highcharts-markers highcharts-series-16 highcharts-column-series highcharts-color-8 "
      clip-path="none" height="509" transform="translate(81,62) scale(1 1)" width="245"></g>
    <g
      class="highcharts-series highcharts-series-17 highcharts-errorbar-series highcharts-color-undefined "
      clip-path="url(#highcharts-165)" height="509" transform="translate(81,62) scale(1 1)"
      width="245">
      <g class="highcharts-point">
        <path class="highcharts-boxplot-stem" d="M 480.5 198 L 480.5 193 M 480.5 198 L 480.5 198" fill="none" stroke="#000000"
          stroke-width="1"></path>
        <path class="highcharts-boxplot-whisker" d="M 469 193.5 L 492 193.5 M 469 198.5 L 492 198.5" fill="none" stroke="#000000"
          stroke-width="1"></path>
        <path class="highcharts-boxplot-median" d="M 0 0" fill="none" stroke="#000000"
          stroke-width="2"></path>
      </g>
    </g>
    <g
      class="highcharts-markers highcharts-series-17 highcharts-errorbar-series highcharts-color-undefined "
      clip-path="none" height="509" transform="translate(81,62) scale(1 1)" width="245"></g>
  </g>
  <text style="color:#333333;font-size:18px;fill:#333333;width:536px;" class="highcharts-title" text-anchor="middle"
    x="300" y="24">
    <tspan>Throughput scores (ops/s)</tspan>
  </text>
  <text style="color:#666666;fill:#666666;width:536px;" class="highcharts-subtitle" text-anchor="middle"
    x="300" y="46">
    <tspan>c.f.e.DecodeBenchmark</tspan>
  </text>
  <g class="highcharts-legend" transform="translate(140,329)">
    <rect class="highcharts-legend-box" fill="none" height="146" rx="0" ry="0" visibility="visible" width="320"
      x="0" y="0"></rect>
    <g>
      <g>
        <g
          class="highcharts-legend-item highcharts-column-series highcharts-color-0 highcharts-series-0"
          transform="translate(8,3)">
          <text style="color:#333333;font-size:12px;font-weight:bold;cursor:pointer;fill:#333333;"
            text-anchor="start"
            x="21" y="15">run(decodeType=JHEX_TO_CHAR_ARRAY)
          </text>
          <rect class="highcharts-point" fill="#4572A7" height="12" rx="6" ry="6" width="12" x="2"
            y="4"></rect>
        </g>
        <g
          class="highcharts-legend-item highcharts-column-series highcharts-color-1 highcharts-series-2"
          transform="translate(8,18)">
          <text style="color:#333333;font-size:12px;font-weight:bold;cursor:pointer;fill:#333333;" text-anchor="start"
            x="21"
            y="15">run(decodeType=JHEX_CHAR_AT)
          </text>
          <rect class="highcharts-point" fill="#AA4643" height="12" rx="6" ry="6" width="12" x="2"
            y="4"></rect>
        </g>
        <g
          class="highcharts-legend-item highcharts-column-series highcharts-color-2 highcharts-series-4"
          transform="translate(8,33)">
          <text style="color:#333333;font-size:12px;font-weight:bold;cursor:pointer;fill:#333333;" text-anchor="start"
            x="21"
            y="15">run(decodeType=JHEX_CHAR_ITERATOR)
          </text>
          <rect class="highcharts-point" fill="#89A54E" height="12" rx="6" ry="6" width="12" x="2"
            y="4"></rect>
        </g>
        <g
          class="highcharts-legend-item highcharts-column-series highcharts-color-3 highcharts-series-6"
          transform="translate(8,48)">
          <text style="color:#333333;font-size:12px;font-weight:bold;cursor:pointer;fill:#333333;" text-anchor="start"
            x="21"
            y="15">run(decodeType=JHEX_TO_CHAR_ARRAY_CHECKED)
          </text>
          <rect class="highcharts-point" fill="#80699B" height="12" rx="6" ry="6" width="12" x="2"
            y="4"></rect>
        </g>
        <g
          class="highcharts-legend-item highcharts-column-series highcharts-color-4 highcharts-series-8"
          transform="translate(8,63)">
          <text style="color:#333333;font-size:12px;font-weight:bold;cursor:pointer;fill:#333333;" text-anchor="start"
            x="21"
            y="15">run(decodeType=JHEX_CHAR_AT_CHECKED)
          </text>
          <rect class="highcharts-point" fill="#3D96AE" height="12" rx="6" ry="6" width="12" x="2"
            y="4"></rect>
        </g>
        <g
          class="highcharts-legend-item highcharts-column-series highcharts-color-5 highcharts-series-10"
          transform="translate(8,78)">
          <text style="color:#333333;font-size:12px;font-weight:bold;cursor:pointer;fill:#333333;" text-anchor="start"
            x="21"
            y="15">run(decodeType=JHEX_CHAR_ITERATOR_CHECKED)
          </text>
          <rect class="highcharts-point" fill="#DB843D" height="12" rx="6" ry="6" width="12" x="2"
            y="4"></rect>
        </g>
        <g
          class="highcharts-legend-item highcharts-column-series highcharts-color-6 highcharts-series-12"
          transform="translate(8,93)">
          <text style="color:#333333;font-size:12px;font-weight:bold;cursor:pointer;fill:#333333;" text-anchor="start"
            x="21"
            y="15">run(decodeType=GUAVA)
          </text>
          <rect class="highcharts-point" fill="#92A8CD" height="12" rx="6" ry="6" width="12" x="2"
            y="4"></rect>
        </g>
        <g
          class="highcharts-legend-item highcharts-column-series highcharts-color-7 highcharts-series-14"
          transform="translate(8,108)">
          <text style="color:#333333;font-size:12px;font-weight:bold;cursor:pointer;fill:#333333;" text-anchor="start"
            x="21"
            y="15">run(decodeType=COMMONS_CODEC)
          </text>
          <rect class="highcharts-point" fill="#A47D7C" height="12" rx="6" ry="6" width="12" x="2"
            y="4"></rect>
        </g>
        <g
          class="highcharts-legend-item highcharts-column-series highcharts-color-8 highcharts-series-16"
          transform="translate(8,123)">
          <text style="color:#333333;font-size:12px;font-weight:bold;cursor:pointer;fill:#333333;" text-anchor="start"
            x="21"
            y="15">run(decodeType=JMX_DATATYPE_CONVERTER)
          </text>
          <rect class="highcharts-point" fill="#B5CA92" height="12" rx="6" ry="6" width="12" x="2"
            y="4"></rect>
        </g>
      </g>
    </g>
  </g>
  <g class="highcharts-axis-labels highcharts-xaxis-labels "></g>
  <g class="highcharts-axis-labels highcharts-yaxis-labels ">
    <text style="color:#666666;cursor:default;font-size:11px;fill:#666666;width:188px;text-overflow:clip;"
      opacity="1"
      text-anchor="end" transform="translate(0,0)" x="66" y="312">
      <tspan>0</tspan>
    </text>
    <text style="color:#666666;cursor:default;font-size:11px;fill:#666666;width:188px;text-overflow:clip;"
      opacity="1"
      text-anchor="end" transform="translate(0,0)" x="66" y="263">
      <tspan>250k</tspan>
    </text>
    <text style="color:#666666;cursor:default;font-size:11px;fill:#666666;width:188px;text-overflow:clip;"
      opacity="1"
      text-anchor="end" transform="translate(0,0)" x="66" y="214">
      <tspan>500k</tspan>
    </text>
    <text style="color:#666666;cursor:default;font-size:11px;fill:#666666;width:188px;text-overflow:clip;"
      opacity="1"
      text-anchor="end" transform="translate(0,0)" x="66" y="165">
      <tspan>750k</tspan>
    </text>
    <text style="color:#666666;cursor:default;font-size:11px;fill:#666666;width:188px;text-overflow:clip;"
      opacity="1"
      text-anchor="end" transform="translate(0,0)" x="66" y="116">
      <tspan>1 000k</tspan>
    </text>
    <text style="color:#666666;cursor:default;font-size:11px;fill:#666666;width:188px;text-overflow:clip;"
      opacity="1"
      text-anchor="end" transform="translate(0,0)" x="66" y="67">
      <tspan>1 250k</tspan>
    </text>
  </g>
  <g style="cursor:default;pointer-events:none;white-space:nowrap;" class="highcharts-label highcharts-tooltip"
    display="none" transform="translate(0,0)">
    <path class="highcharts-label-box highcharts-tooltip-box" d="M 3.5 0.5 L 13.5 0.5 C 16.5 0.5 16.5 0.5 16.5 3.5 L 16.5 13.5 C 16.5 16.5 16.5 16.5 13.5 16.5 L 3.5 16.5 C 0.5 16.5 0.5 16.5 0.5 13.5 L 0.5 3.5 C 0.5 0.5 0.5 0.5 3.5 0.5"
      fill="none"
      stroke="#000000" stroke-opacity="0.049999999999999996" stroke-width="5"
      transform="translate(1, 1)"></path>
    <path class="highcharts-label-box highcharts-tooltip-box" d="M 3.5 0.5 L 13.5 0.5 C 16.5 0.5 16.5 0.5 16.5 3.5 L 16.5 13.5 C 16.5 16.5 16.5 16.5 13.5 16.5 L 3.5 16.5 C 0.5 16.5 0.5 16.5 0.5 13.5 L 0.5 3.5 C 0.5 0.5 0.5 0.5 3.5 0.5"
      fill="none"
      stroke="#000000" stroke-opacity="0.09999999999999999" stroke-width="3"
      transform="translate(1, 1)"></path>
    <path class="highcharts-label-box highcharts-tooltip-box" d="M 3.5 0.5 L 13.5 0.5 C 16.5 0.5 16.5 0.5 16.5 3.5 L 16.5 13.5 C 16.5 16.5 16.5 16.5 13.5 16.5 L 3.5 16.5 C 0.5 16.5 0.5 16.5 0.5 13.5 L 0.5 3.5 C 0.5 0.5 0.5 0.5 3.5 0.5"
      fill="none"
      stroke="#000000" stroke-opacity="0.15" stroke-width="1" transform="translate(1, 1)"></path>
    <path class="highcharts-label-box highcharts-tooltip-box" d="M 3.5 0.5 L 13.5 0.5 C 16.5 0.5 16.5 0.5 16.5 3.5 L 16.5 13.5 C 16.5 16.5 16.5 16.5 13.5 16.5 L 3.5 16.5 C 0.5 16.5 0.5 16.5 0.5 13.5 L 0.5 3.5 C 0.5 0.5 0.5 0.5 3.5 0.5"
      fill="rgb(247,247,247)"
      fill-opacity="0.85"></path>
    <text style="font-size:12px;color:#333333;fill:#333333;" x="8" y="20"></text>
  </g>
</svg>