<?xml version="1.0" standalone="no"?><!DOCTYPE svg PUBLIC "-//W3C//DTD SVG 1.1//EN" "http://www.w3.org/Graphics/SVG/1.1/DTD/svg11.dtd"><svg xmlns:xlink="http://www.w3.org/1999/xlink" version="1.1" class="highcharts-root" style="font-family:signika, serif;font-size:12px;" xmlns="http://www.w3.org/2000/svg" width="600" viewBox="0 0 600 490" height="490"><desc>Created with Highcharts 5.0.0</desc><defs><clipPath id="highcharts-27"><rect x="0" y="0" width="517" height="245" fill="none"></rect></clipPath></defs><rect fill="#ffffff" class="highcharts-background" x="0" y="0" width="600" height="490" rx="0" ry="0"></rect><rect fill="none" class="highcharts-plot-background" x="73" y="62" width="517" height="245"></rect><g class="highcharts-grid highcharts-xaxis-grid "><path fill="none" class="highcharts-grid-line" d="M 331.5 62 L 331.5 307" opacity="1"></path></g><g class="highcharts-grid highcharts-yaxis-grid "><path fill="none" stroke="#e6e6e6" stroke-width="1" class="highcharts-grid-line" d="M 73 307.5 L 590 307.5" opacity="1"></path><path fill="none" stroke="#e6e6e6" stroke-width="1" class="highcharts-grid-line" d="M 73 246.5 L 590 246.5" opacity="1"></path><path fill="none" stroke="#e6e6e6" stroke-width="1" class="highcharts-grid-line" d="M 73 185.5 L 590 185.5" opacity="1"></path><path fill="none" stroke="#e6e6e6" stroke-width="1" class="highcharts-grid-line" d="M 73 123.5 L 590 123.5" opacity="1"></path><path fill="none" stroke="#e6e6e6" stroke-width="1" class="highcharts-grid-line" d="M 73 61.5 L 590 61.5" opacity="1"></path></g><rect fill="none" class="highcharts-plot-border" x="73" y="62" width="517" height="245"></rect><g class="highcharts-axis highcharts-xaxis "><path fill="none" class="highcharts-tick" stroke="#ccd6eb" stroke-width="1" d="M 331.5 307 L 331.5 317" opacity="1"></path><path fill="none" class="highcharts-axis-line" stroke="#ccd6eb" stroke-width="1" d="M 73 307.5 L 590 307.5"></path></g><g class="highcharts-axis highcharts-yaxis "><text x="24.5625" text-anchor="middle" transform="translate(0,0) rotate(270 24.5625 184.5)" class="highcharts-axis-title" style="color:#666666;fill:#666666;" y="184.5">ops/s</text><path fill="none" class="highcharts-axis-line" d="M 73 62 L 73 307"></path></g><g class="highcharts-series-group"><g class="highcharts-series highcharts-series-0 highcharts-column-series highcharts-color-0 " transform="translate(73,62) scale(1 1)" width="245" height="517" clip-path="url(#highcharts-27)"><rect x="5.5" y="85.5" width="46" height="160" fill="#4572A7" class="highcharts-point highcharts-color-0" stroke="#ffffff" stroke-width="1"></rect></g><g class="highcharts-markers highcharts-series-0 highcharts-column-series highcharts-color-0 " transform="translate(73,62) scale(1 1)" width="245" height="517" clip-path="none"></g><g class="highcharts-series highcharts-series-1 highcharts-errorbar-series highcharts-color-undefined " transform="translate(73,62) scale(1 1)" width="245" height="517" clip-path="url(#highcharts-27)"><g class="highcharts-point"><path fill="none" class="highcharts-boxplot-stem" stroke="#000000" stroke-width="1" d="M 28.5 87 L 28.5 82 M 28.5 87 L 28.5 87"></path><path fill="none" class="highcharts-boxplot-whisker" stroke="#000000" stroke-width="1" d="M 17 82.5 L 40 82.5 M 17 87.5 L 40 87.5"></path><path fill="none" class="highcharts-boxplot-median" stroke="#000000" stroke-width="2" d="M 0 0"></path></g></g><g class="highcharts-markers highcharts-series-1 highcharts-errorbar-series highcharts-color-undefined " transform="translate(73,62) scale(1 1)" width="245" height="517" clip-path="none"></g><g class="highcharts-series highcharts-series-2 highcharts-column-series highcharts-color-1 " transform="translate(73,62) scale(1 1)" width="245" height="517" clip-path="url(#highcharts-27)"><rect x="62.5" y="55.5" width="46" height="190" fill="#AA4643" class="highcharts-point highcharts-color-1" stroke="#ffffff" stroke-width="1"></rect></g><g class="highcharts-markers highcharts-series-2 highcharts-column-series highcharts-color-1 " transform="translate(73,62) scale(1 1)" width="245" height="517" clip-path="none"></g><g class="highcharts-series highcharts-series-3 highcharts-errorbar-series highcharts-color-undefined " transform="translate(73,62) scale(1 1)" width="245" height="517" clip-path="url(#highcharts-27)"><g class="highcharts-point"><path fill="none" class="highcharts-boxplot-stem" stroke="#000000" stroke-width="1" d="M 85.5 59 L 85.5 51 M 85.5 59 L 85.5 59"></path><path fill="none" class="highcharts-boxplot-whisker" stroke="#000000" stroke-width="1" d="M 74 51.5 L 97 51.5 M 74 59.5 L 97 59.5"></path><path fill="none" class="highcharts-boxplot-median" stroke="#000000" stroke-width="2" d="M 0 0"></path></g></g><g class="highcharts-markers highcharts-series-3 highcharts-errorbar-series highcharts-color-undefined " transform="translate(73,62) scale(1 1)" width="245" height="517" clip-path="none"></g><g class="highcharts-series highcharts-series-4 highcharts-column-series highcharts-color-2 " transform="translate(73,62) scale(1 1)" width="245" height="517" clip-path="url(#highcharts-27)"><rect x="120.5" y="65.5" width="46" height="180" fill="#89A54E" class="highcharts-point highcharts-color-2" stroke="#ffffff" stroke-width="1"></rect></g><g class="highcharts-markers highcharts-series-4 highcharts-column-series highcharts-color-2 " transform="translate(73,62) scale(1 1)" width="245" height="517" clip-path="none"></g><g class="highcharts-series highcharts-series-5 highcharts-errorbar-series highcharts-color-undefined " transform="translate(73,62) scale(1 1)" width="245" height="517" clip-path="url(#highcharts-27)"><g class="highcharts-point"><path fill="none" class="highcharts-boxplot-stem" stroke="#000000" stroke-width="1" d="M 143.5 72 L 143.5 56 M 143.5 72 L 143.5 72"></path><path fill="none" class="highcharts-boxplot-whisker" stroke="#000000" stroke-width="1" d="M 132 56.5 L 155 56.5 M 132 72.5 L 155 72.5"></path><path fill="none" class="highcharts-boxplot-median" stroke="#000000" stroke-width="2" d="M 0 0"></path></g></g><g class="highcharts-markers highcharts-series-5 highcharts-errorbar-series highcharts-color-undefined " transform="translate(73,62) scale(1 1)" width="245" height="517" clip-path="none"></g><g class="highcharts-series highcharts-series-6 highcharts-column-series highcharts-color-3 " transform="translate(73,62) scale(1 1)" width="245" height="517" clip-path="url(#highcharts-27)"><rect x="177.5" y="79.5" width="46" height="166" fill="#80699B" class="highcharts-point highcharts-color-3" stroke="#ffffff" stroke-width="1"></rect></g><g class="highcharts-markers highcharts-series-6 highcharts-column-series highcharts-color-3 " transform="translate(73,62) scale(1 1)" width="245" height="517" clip-path="none"></g><g class="highcharts-series highcharts-series-7 highcharts-errorbar-series highcharts-color-undefined " transform="translate(73,62) scale(1 1)" width="245" height="517" clip-path="url(#highcharts-27)"><g class="highcharts-point"><path fill="none" class="highcharts-boxplot-stem" stroke="#000000" stroke-width="1" d="M 200.5 81 L 200.5 75 M 200.5 81 L 200.5 81"></path><path fill="none" class="highcharts-boxplot-whisker" stroke="#000000" stroke-width="1" d="M 189 75.5 L 212 75.5 M 189 81.5 L 212 81.5"></path><path fill="none" class="highcharts-boxplot-median" stroke="#000000" stroke-width="2" d="M 0 0"></path></g></g><g class="highcharts-markers highcharts-series-7 highcharts-errorbar-series highcharts-color-undefined " transform="translate(73,62) scale(1 1)" width="245" height="517" clip-path="none"></g><g class="highcharts-series highcharts-series-8 highcharts-column-series highcharts-color-4 " transform="translate(73,62) scale(1 1)" width="245" height="517" clip-path="url(#highcharts-27)"><rect x="235.5" y="64.5" width="46" height="181" fill="#3D96AE" class="highcharts-point highcharts-color-4" stroke="#ffffff" stroke-width="1"></rect></g><g class="highcharts-markers highcharts-series-8 highcharts-column-series highcharts-color-4 " transform="translate(73,62) scale(1 1)" width="245" height="517" clip-path="none"></g><g class="highcharts-series highcharts-series-9 highcharts-errorbar-series highcharts-color-undefined " transform="translate(73,62) scale(1 1)" width="245" height="517" clip-path="url(#highcharts-27)"><g class="highcharts-point"><path fill="none" class="highcharts-boxplot-stem" stroke="#000000" stroke-width="1" d="M 258.5 67 L 258.5 61 M 258.5 67 L 258.5 67"></path><path fill="none" class="highcharts-boxplot-whisker" stroke="#000000" stroke-width="1" d="M 247 61.5 L 270 61.5 M 247 67.5 L 270 67.5"></path><path fill="none" class="highcharts-boxplot-median" stroke="#000000" stroke-width="2" d="M 0 0"></path></g></g><g class="highcharts-markers highcharts-series-9 highcharts-errorbar-series highcharts-color-undefined " transform="translate(73,62) scale(1 1)" width="245" height="517" clip-path="none"></g><g class="highcharts-series highcharts-series-10 highcharts-column-series highcharts-color-5 " transform="translate(73,62) scale(1 1)" width="245" height="517" clip-path="url(#highcharts-27)"><rect x="292.5" y="67.5" width="46" height="178" fill="#DB843D" class="highcharts-point highcharts-color-5" stroke="#ffffff" stroke-width="1"></rect></g><g class="highcharts-markers highcharts-series-10 highcharts-column-series highcharts-color-5 " transform="translate(73,62) scale(1 1)" width="245" height="517" clip-path="none"></g><g class="highcharts-series highcharts-series-11 highcharts-errorbar-series highcharts-color-undefined " transform="translate(73,62) scale(1 1)" width="245" height="517" clip-path="url(#highcharts-27)"><g class="highcharts-point"><path fill="none" class="highcharts-boxplot-stem" stroke="#000000" stroke-width="1" d="M 315.5 74 L 315.5 59 M 315.5 74 L 315.5 74"></path><path fill="none" class="highcharts-boxplot-whisker" stroke="#000000" stroke-width="1" d="M 304 59.5 L 327 59.5 M 304 74.5 L 327 74.5"></path><path fill="none" class="highcharts-boxplot-median" stroke="#000000" stroke-width="2" d="M 0 0"></path></g></g><g class="highcharts-markers highcharts-series-11 highcharts-errorbar-series highcharts-color-undefined " transform="translate(73,62) scale(1 1)" width="245" height="517" clip-path="none"></g><g class="highcharts-series highcharts-series-12 highcharts-column-series highcharts-color-6 " transform="translate(73,62) scale(1 1)" width="245" height="517" clip-path="url(#highcharts-27)"><rect x="349.5" y="65.5" width="46" height="180" fill="#92A8CD" class="highcharts-point highcharts-color-6" stroke="#ffffff" stroke-width="1"></rect></g><g class="highcharts-markers highcharts-series-12 highcharts-column-series highcharts-color-6 " transform="translate(73,62) scale(1 1)" width="245" height="517" clip-path="none"></g><g class="highcharts-series highcharts-series-13 highcharts-errorbar-series highcharts-color-undefined " transform="translate(73,62) scale(1 1)" width="245" height="517" clip-path="url(#highcharts-27)"><g class="highcharts-point"><path fill="none" class="highcharts-boxplot-stem" stroke="#000000" stroke-width="1" d="M 372.5 67 L 372.5 63 M 372.5 67 L 372.5 67"></path><path fill="none" class="highcharts-boxplot-whisker" stroke="#000000" stroke-width="1" d="M 361 63.5 L 384 63.5 M 361 67.5 L 384 67.5"></path><path fill="none" class="highcharts-boxplot-median" stroke="#000000" stroke-width="2" d="M 0 0"></path></g></g><g class="highcharts-markers highcharts-series-13 highcharts-errorbar-series highcharts-color-undefined " transform="translate(73,62) scale(1 1)" width="245" height="517" clip-path="none"></g><g class="highcharts-series highcharts-series-14 highcharts-column-series highcharts-color-7 " transform="translate(73,62) scale(1 1)" width="245" height="517" clip-path="url(#highcharts-27)"><rect x="407.5" y="135.5" width="46" height="110" fill="#A47D7C" class="highcharts-point highcharts-color-7" stroke="#ffffff" stroke-width="1"></rect></g><g class="highcharts-markers highcharts-series-14 highcharts-column-series highcharts-color-7 " transform="translate(73,62) scale(1 1)" width="245" height="517" clip-path="none"></g><g class="highcharts-series highcharts-series-15 highcharts-errorbar-series highcharts-color-undefined " transform="translate(73,62) scale(1 1)" width="245" height="517" clip-path="url(#highcharts-27)"><g class="highcharts-point"><path fill="none" class="highcharts-boxplot-stem" stroke="#000000" stroke-width="1" d="M 430.5 138 L 430.5 131 M 430.5 138 L 430.5 138"></path><path fill="none" class="highcharts-boxplot-whisker" stroke="#000000" stroke-width="1" d="M 419 131.5 L 442 131.5 M 419 138.5 L 442 138.5"></path><path fill="none" class="highcharts-boxplot-median" stroke="#000000" stroke-width="2" d="M 0 0"></path></g></g><g class="highcharts-markers highcharts-series-15 highcharts-errorbar-series highcharts-color-undefined " transform="translate(73,62) scale(1 1)" width="245" height="517" clip-path="none"></g><g class="highcharts-series highcharts-series-16 highcharts-column-series highcharts-color-8 " transform="translate(73,62) scale(1 1)" width="245" height="517" clip-path="url(#highcharts-27)"><rect x="464.5" y="113.5" width="46" height="132" fill="#B5CA92" class="highcharts-point highcharts-color-8" stroke="#ffffff" stroke-width="1"></rect></g><g class="highcharts-markers highcharts-series-16 highcharts-column-series highcharts-color-8 " transform="translate(73,62) scale(1 1)" width="245" height="517" clip-path="none"></g><g class="highcharts-series highcharts-series-17 highcharts-errorbar-series highcharts-color-undefined " transform="translate(73,62) scale(1 1)" width="245" height="517" clip-path="url(#highcharts-27)"><g class="highcharts-point"><path fill="none" class="highcharts-boxplot-stem" stroke="#000000" stroke-width="1" d="M 487.5 114 L 487.5 111 M 487.5 114 L 487.5 114"></path><path fill="none" class="highcharts-boxplot-whisker" stroke="#000000" stroke-width="1" d="M 476 111.5 L 499 111.5 M 476 114.5 L 499 114.5"></path><path fill="none" class="highcharts-boxplot-median" stroke="#000000" stroke-width="2" d="M 0 0"></path></g></g><g class="highcharts-markers highcharts-series-17 highcharts-errorbar-series highcharts-color-undefined " transform="translate(73,62) scale(1 1)" width="245" height="517" clip-path="none"></g></g><text x="300" text-anchor="middle" class="highcharts-title" style="color:#333333;font-size:18px;fill:#333333;width:536px;" y="24"><tspan>Throughput scores (ops/s)</tspan></text><text x="300" text-anchor="middle" class="highcharts-subtitle" style="color:#666666;fill:#666666;width:536px;" y="46"><tspan>c.f.e.DecodeBenchmark</tspan></text><g class="highcharts-legend" transform="translate(140,329)"><rect fill="none" class="highcharts-legend-box" rx="0" ry="0" x="0" y="0" width="320" height="146" visibility="visible"></rect><g><g><g class="highcharts-legend-item highcharts-column-series highcharts-color-0 highcharts-series-0" transform="translate(8,3)"><text x="21" style="color:#333333;font-size:12px;font-weight:bold;cursor:pointer;fill:#333333;" text-anchor="start" y="15">run(decodeType=JHEX_TO_CHAR_ARRAY)</text><rect x="2" y="4" width="12" height="12" fill="#4572A7" rx="6" ry="6" class="highcharts-point"></rect></g><g class="highcharts-legend-item highcharts-column-series highcharts-color-1 highcharts-series-2" transform="translate(8,18)"><text x="21" y="15" style="color:#333333;font-size:12px;font-weight:bold;cursor:pointer;fill:#333333;" text-anchor="start">run(decodeType=JHEX_CHAR_AT)</text><rect x="2" y="4" width="12" height="12" fill="#AA4643" rx="6" ry="6" class="highcharts-point"></rect></g><g class="highcharts-legend-item highcharts-column-series highcharts-color-2 highcharts-series-4" transform="translate(8,33)"><text x="21" y="15" style="color:#333333;font-size:12px;font-weight:bold;cursor:pointer;fill:#333333;" text-anchor="start">run(decodeType=JHEX_CHAR_ITERATOR)</text><rect x="2" y="4" width="12" height="12" fill="#89A54E" rx="6" ry="6" class="highcharts-point"></rect></g><g class="highcharts-legend-item highcharts-column-series highcharts-color-3 highcharts-series-6" transform="translate(8,48)"><text x="21" y="15" style="color:#333333;font-size:12px;font-weight:bold;cursor:pointer;fill:#333333;" text-anchor="start">run(decodeType=JHEX_TO_CHAR_ARRAY_CHECKED)</text><rect x="2" y="4" width="12" height="12" fill="#80699B" rx="6" ry="6" class="highcharts-point"></rect></g><g class="highcharts-legend-item highcharts-column-series highcharts-color-4 highcharts-series-8" transform="translate(8,63)"><text x="21" y="15" style="color:#333333;font-size:12px;font-weight:bold;cursor:pointer;fill:#333333;" text-anchor="start">run(decodeType=JHEX_CHAR_AT_CHECKED)</text><rect x="2" y="4" width="12" height="12" fill="#3D96AE" rx="6" ry="6" class="highcharts-point"></rect></g><g class="highcharts-legend-item highcharts-column-series highcharts-color-5 highcharts-series-10" transform="translate(8,78)"><text x="21" y="15" style="color:#333333;font-size:12px;font-weight:bold;cursor:pointer;fill:#333333;" text-anchor="start">run(decodeType=JHEX_CHAR_ITERATOR_CHECKED)</text><rect x="2" y="4" width="12" height="12" fill="#DB843D" rx="6" ry="6" class="highcharts-point"></rect></g><g class="highcharts-legend-item highcharts-column-series highcharts-color-6 highcharts-series-12" transform="translate(8,93)"><text x="21" y="15" style="color:#333333;font-size:12px;font-weight:bold;cursor:pointer;fill:#333333;" text-anchor="start">run(decodeType=GUAVA)</text><rect x="2" y="4" width="12" height="12" fill="#92A8CD" rx="6" ry="6" class="highcharts-point"></rect></g><g class="highcharts-legend-item highcharts-column-series highcharts-color-7 highcharts-series-14" transform="translate(8,108)"><text x="21" y="15" style="color:#333333;font-size:12px;font-weight:bold;cursor:pointer;fill:#333333;" text-anchor="start">run(decodeType=COMMONS_CODEC)</text><rect x="2" y="4" width="12" height="12" fill="#A47D7C" rx="6" ry="6" class="highcharts-point"></rect></g><g class="highcharts-legend-item highcharts-column-series highcharts-color-8 highcharts-series-16" transform="translate(8,123)"><text x="21" y="15" style="color:#333333;font-size:12px;font-weight:bold;cursor:pointer;fill:#333333;" text-anchor="start">run(decodeType=JMX_DATATYPE_CONVERTER)</text><rect x="2" y="4" width="12" height="12" fill="#B5CA92" rx="6" ry="6" class="highcharts-point"></rect></g></g></g></g><g class="highcharts-axis-labels highcharts-xaxis-labels "></g><g class="highcharts-axis-labels highcharts-yaxis-labels "><text x="58" style="color:#666666;cursor:default;font-size:11px;fill:#666666;width:188px;text-overflow:clip;" text-anchor="end" transform="translate(0,0)" y="312" opacity="1"><tspan>0</tspan></text><text x="58" style="color:#666666;cursor:default;font-size:11px;fill:#666666;width:188px;text-overflow:clip;" text-anchor="end" transform="translate(0,0)" y="250" opacity="1"><tspan>2.5M</tspan></text><text x="58" style="color:#666666;cursor:default;font-size:11px;fill:#666666;width:188px;text-overflow:clip;" text-anchor="end" transform="translate(0,0)" y="189" opacity="1"><tspan>5M</tspan></text><text x="58" style="color:#666666;cursor:default;font-size:11px;fill:#666666;width:188px;text-overflow:clip;" text-anchor="end" transform="translate(0,0)" y="128" opacity="1"><tspan>7.5M</tspan></text><text x="58" style="color:#666666;cursor:default;font-size:11px;fill:#666666;width:188px;text-overflow:clip;" text-anchor="end" transform="translate(0,0)" y="67" opacity="1"><tspan>10M</tspan></text></g><g class="highcharts-label highcharts-tooltip" display="none" style="cursor:default;pointer-events:none;white-space:nowrap;" transform="translate(0,0)"><path fill="none" class="highcharts-label-box highcharts-tooltip-box" d="M 3.5 0.5 L 13.5 0.5 C 16.5 0.5 16.5 0.5 16.5 3.5 L 16.5 13.5 C 16.5 16.5 16.5 16.5 13.5 16.5 L 3.5 16.5 C 0.5 16.5 0.5 16.5 0.5 13.5 L 0.5 3.5 C 0.5 0.5 0.5 0.5 3.5 0.5"  stroke="#000000" stroke-opacity="0.049999999999999996" stroke-width="5" transform="translate(1, 1)"></path><path fill="none" class="highcharts-label-box highcharts-tooltip-box" d="M 3.5 0.5 L 13.5 0.5 C 16.5 0.5 16.5 0.5 16.5 3.5 L 16.5 13.5 C 16.5 16.5 16.5 16.5 13.5 16.5 L 3.5 16.5 C 0.5 16.5 0.5 16.5 0.5 13.5 L 0.5 3.5 C 0.5 0.5 0.5 0.5 3.5 0.5"  stroke="#000000" stroke-opacity="0.09999999999999999" stroke-width="3" transform="translate(1, 1)"></path><path fill="none" class="highcharts-label-box highcharts-tooltip-box" d="M 3.5 0.5 L 13.5 0.5 C 16.5 0.5 16.5 0.5 16.5 3.5 L 16.5 13.5 C 16.5 16.5 16.5 16.5 13.5 16.5 L 3.5 16.5 C 0.5 16.5 0.5 16.5 0.5 13.5 L 0.5 3.5 C 0.5 0.5 0.5 0.5 3.5 0.5"  stroke="#000000" stroke-opacity="0.15" stroke-width="1" transform="translate(1, 1)"></path><path fill="rgb(247,247,247)" fill-opacity="0.85" class="highcharts-label-box highcharts-tooltip-box" d="M 3.5 0.5 L 13.5 0.5 C 16.5 0.5 16.5 0.5 16.5 3.5 L 16.5 13.5 C 16.5 16.5 16.5 16.5 13.5 16.5 L 3.5 16.5 C 0.5 16.5 0.5 16.5 0.5 13.5 L 0.5 3.5 C 0.5 0.5 0.5 0.5 3.5 0.5"></path><text x="8" style="font-size:12px;color:#333333;fill:#333333;" y="20"></text></g></svg>