<?xml version="1.0" standalone="no"?><!DOCTYPE svg PUBLIC "-//W3C//DTD SVG 1.1//EN" "http://www.w3.org/Graphics/SVG/1.1/DTD/svg11.dtd"><svg xmlns:xlink="http://www.w3.org/1999/xlink" version="1.1" class="highcharts-root" style="font-family:signika, serif;font-size:12px;" xmlns="http://www.w3.org/2000/svg" width="600" viewBox="0 0 600 520" height="520"><desc>Created with Highcharts 5.0.0</desc><defs><clipPath id="highcharts-23"><rect x="0" y="0" width="519" height="305" fill="none"></rect></clipPath></defs><rect fill="#ffffff" class="highcharts-background" x="0" y="0" width="600" height="520" rx="0" ry="0"></rect><rect fill="none" class="highcharts-plot-background" x="71" y="62" width="519" height="305"></rect><g class="highcharts-grid highcharts-xaxis-grid "><path fill="none" class="highcharts-grid-line" d="M 330.5 62 L 330.5 367" opacity="1"></path></g><g class="highcharts-grid highcharts-yaxis-grid "><path fill="none" stroke="#e6e6e6" stroke-width="1" class="highcharts-grid-line" d="M 71 367.5 L 590 367.5" opacity="1"></path><path fill="none" stroke="#e6e6e6" stroke-width="1" class="highcharts-grid-line" d="M 71 306.5 L 590 306.5" opacity="1"></path><path fill="none" stroke="#e6e6e6" stroke-width="1" class="highcharts-grid-line" d="M 71 245.5 L 590 245.5" opacity="1"></path><path fill="none" stroke="#e6e6e6" stroke-width="1" class="highcharts-grid-line" d="M 71 184.5 L 590 184.5" opacity="1"></path><path fill="none" stroke="#e6e6e6" stroke-width="1" class="highcharts-grid-line" d="M 71 123.5 L 590 123.5" opacity="1"></path><path fill="none" stroke="#e6e6e6" stroke-width="1" class="highcharts-grid-line" d="M 71 61.5 L 590 61.5" opacity="1"></path></g><rect fill="none" class="highcharts-plot-border" x="71" y="62" width="519" height="305"></rect><g class="highcharts-axis highcharts-xaxis "><path fill="none" class="highcharts-tick" stroke="#ccd6eb" stroke-width="1" d="M 330.5 367 L 330.5 377" opacity="1"></path><path fill="none" class="highcharts-axis-line" stroke="#ccd6eb" stroke-width="1" d="M 71 367.5 L 590 367.5"></path></g><g class="highcharts-axis highcharts-yaxis "><text x="25.453125" text-anchor="middle" transform="translate(0,0) rotate(270 25.453125 214.5)" class="highcharts-axis-title" style="color:#666666;fill:#666666;" y="214.5">ops/s</text><path fill="none" class="highcharts-axis-line" d="M 71 62 L 71 367"></path></g><g class="highcharts-series-group"><g class="highcharts-series highcharts-series-0 highcharts-column-series highcharts-color-0 " transform="translate(71,62) scale(1 1)" width="305" height="519" clip-path="url(#highcharts-23)"><rect x="6.5" y="90.5" width="60" height="215" fill="#4572A7" class="highcharts-point highcharts-color-0" stroke="#ffffff" stroke-width="1"></rect></g><g class="highcharts-markers highcharts-series-0 highcharts-column-series highcharts-color-0 " transform="translate(71,62) scale(1 1)" width="305" height="519" clip-path="none"></g><g class="highcharts-series highcharts-series-1 highcharts-errorbar-series highcharts-color-undefined " transform="translate(71,62) scale(1 1)" width="305" height="519" clip-path="url(#highcharts-23)"><g class="highcharts-point"><path fill="none" class="highcharts-boxplot-stem" stroke="#000000" stroke-width="1" d="M 36.5 101 L 36.5 77 M 36.5 101 L 36.5 101"></path><path fill="none" class="highcharts-boxplot-whisker" stroke="#000000" stroke-width="1" d="M 21.5 77.5 L 51.5 77.5 M 21.5 101.5 L 51.5 101.5"></path><path fill="none" class="highcharts-boxplot-median" stroke="#000000" stroke-width="2" d="M 0 0"></path></g></g><g class="highcharts-markers highcharts-series-1 highcharts-errorbar-series highcharts-color-undefined " transform="translate(71,62) scale(1 1)" width="305" height="519" clip-path="none"></g><g class="highcharts-series highcharts-series-2 highcharts-column-series highcharts-color-1 " transform="translate(71,62) scale(1 1)" width="305" height="519" clip-path="url(#highcharts-23)"><rect x="81.5" y="103.5" width="60" height="202" fill="#AA4643" class="highcharts-point highcharts-color-1" stroke="#ffffff" stroke-width="1"></rect></g><g class="highcharts-markers highcharts-series-2 highcharts-column-series highcharts-color-1 " transform="translate(71,62) scale(1 1)" width="305" height="519" clip-path="none"></g><g class="highcharts-series highcharts-series-3 highcharts-errorbar-series highcharts-color-undefined " transform="translate(71,62) scale(1 1)" width="305" height="519" clip-path="url(#highcharts-23)"><g class="highcharts-point"><path fill="none" class="highcharts-boxplot-stem" stroke="#000000" stroke-width="1" d="M 111.5 106 L 111.5 100 M 111.5 106 L 111.5 106"></path><path fill="none" class="highcharts-boxplot-whisker" stroke="#000000" stroke-width="1" d="M 96.5 100.5 L 126.5 100.5 M 96.5 106.5 L 126.5 106.5"></path><path fill="none" class="highcharts-boxplot-median" stroke="#000000" stroke-width="2" d="M 0 0"></path></g></g><g class="highcharts-markers highcharts-series-3 highcharts-errorbar-series highcharts-color-undefined " transform="translate(71,62) scale(1 1)" width="305" height="519" clip-path="none"></g><g class="highcharts-series highcharts-series-4 highcharts-column-series highcharts-color-2 " transform="translate(71,62) scale(1 1)" width="305" height="519" clip-path="url(#highcharts-23)"><rect x="155.5" y="80.5" width="60" height="225" fill="#89A54E" class="highcharts-point highcharts-color-2" stroke="#ffffff" stroke-width="1"></rect></g><g class="highcharts-markers highcharts-series-4 highcharts-column-series highcharts-color-2 " transform="translate(71,62) scale(1 1)" width="305" height="519" clip-path="none"></g><g class="highcharts-series highcharts-series-5 highcharts-errorbar-series highcharts-color-undefined " transform="translate(71,62) scale(1 1)" width="305" height="519" clip-path="url(#highcharts-23)"><g class="highcharts-point"><path fill="none" class="highcharts-boxplot-stem" stroke="#000000" stroke-width="1" d="M 185.5 91 L 185.5 68 M 185.5 91 L 185.5 91"></path><path fill="none" class="highcharts-boxplot-whisker" stroke="#000000" stroke-width="1" d="M 170.5 68.5 L 200.5 68.5 M 170.5 91.5 L 200.5 91.5"></path><path fill="none" class="highcharts-boxplot-median" stroke="#000000" stroke-width="2" d="M 0 0"></path></g></g><g class="highcharts-markers highcharts-series-5 highcharts-errorbar-series highcharts-color-undefined " transform="translate(71,62) scale(1 1)" width="305" height="519" clip-path="none"></g><g class="highcharts-series highcharts-series-6 highcharts-column-series highcharts-color-3 " transform="translate(71,62) scale(1 1)" width="305" height="519" clip-path="url(#highcharts-23)"><rect x="229.5" y="97.5" width="60" height="208" fill="#80699B" class="highcharts-point highcharts-color-3" stroke="#ffffff" stroke-width="1"></rect></g><g class="highcharts-markers highcharts-series-6 highcharts-column-series highcharts-color-3 " transform="translate(71,62) scale(1 1)" width="305" height="519" clip-path="none"></g><g class="highcharts-series highcharts-series-7 highcharts-errorbar-series highcharts-color-undefined " transform="translate(71,62) scale(1 1)" width="305" height="519" clip-path="url(#highcharts-23)"><g class="highcharts-point"><path fill="none" class="highcharts-boxplot-stem" stroke="#000000" stroke-width="1" d="M 259.5 100 L 259.5 93 M 259.5 100 L 259.5 100"></path><path fill="none" class="highcharts-boxplot-whisker" stroke="#000000" stroke-width="1" d="M 244.5 93.5 L 274.5 93.5 M 244.5 100.5 L 274.5 100.5"></path><path fill="none" class="highcharts-boxplot-median" stroke="#000000" stroke-width="2" d="M 0 0"></path></g></g><g class="highcharts-markers highcharts-series-7 highcharts-errorbar-series highcharts-color-undefined " transform="translate(71,62) scale(1 1)" width="305" height="519" clip-path="none"></g><g class="highcharts-series highcharts-series-8 highcharts-column-series highcharts-color-4 " transform="translate(71,62) scale(1 1)" width="305" height="519" clip-path="url(#highcharts-23)"><rect x="303.5" y="166.5" width="60" height="139" fill="#3D96AE" class="highcharts-point highcharts-color-4" stroke="#ffffff" stroke-width="1"></rect></g><g class="highcharts-markers highcharts-series-8 highcharts-column-series highcharts-color-4 " transform="translate(71,62) scale(1 1)" width="305" height="519" clip-path="none"></g><g class="highcharts-series highcharts-series-9 highcharts-errorbar-series highcharts-color-undefined " transform="translate(71,62) scale(1 1)" width="305" height="519" clip-path="url(#highcharts-23)"><g class="highcharts-point"><path fill="none" class="highcharts-boxplot-stem" stroke="#000000" stroke-width="1" d="M 333.5 169 L 333.5 162 M 333.5 169 L 333.5 169"></path><path fill="none" class="highcharts-boxplot-whisker" stroke="#000000" stroke-width="1" d="M 318.5 162.5 L 348.5 162.5 M 318.5 169.5 L 348.5 169.5"></path><path fill="none" class="highcharts-boxplot-median" stroke="#000000" stroke-width="2" d="M 0 0"></path></g></g><g class="highcharts-markers highcharts-series-9 highcharts-errorbar-series highcharts-color-undefined " transform="translate(71,62) scale(1 1)" width="305" height="519" clip-path="none"></g><g class="highcharts-series highcharts-series-10 highcharts-column-series highcharts-color-5 " transform="translate(71,62) scale(1 1)" width="305" height="519" clip-path="url(#highcharts-23)"><rect x="377.5" y="81.5" width="60" height="224" fill="#DB843D" class="highcharts-point highcharts-color-5" stroke="#ffffff" stroke-width="1"></rect></g><g class="highcharts-markers highcharts-series-10 highcharts-column-series highcharts-color-5 " transform="translate(71,62) scale(1 1)" width="305" height="519" clip-path="none"></g><g class="highcharts-series highcharts-series-11 highcharts-errorbar-series highcharts-color-undefined " transform="translate(71,62) scale(1 1)" width="305" height="519" clip-path="url(#highcharts-23)"><g class="highcharts-point"><path fill="none" class="highcharts-boxplot-stem" stroke="#000000" stroke-width="1" d="M 407.5 84 L 407.5 76 M 407.5 84 L 407.5 84"></path><path fill="none" class="highcharts-boxplot-whisker" stroke="#000000" stroke-width="1" d="M 392.5 76.5 L 422.5 76.5 M 392.5 84.5 L 422.5 84.5"></path><path fill="none" class="highcharts-boxplot-median" stroke="#000000" stroke-width="2" d="M 0 0"></path></g></g><g class="highcharts-markers highcharts-series-11 highcharts-errorbar-series highcharts-color-undefined " transform="translate(71,62) scale(1 1)" width="305" height="519" clip-path="none"></g><g class="highcharts-series highcharts-series-12 highcharts-column-series highcharts-color-6 " transform="translate(71,62) scale(1 1)" width="305" height="519" clip-path="url(#highcharts-23)"><rect x="451.5" y="141.5" width="60" height="164" fill="#92A8CD" class="highcharts-point highcharts-color-6" stroke="#ffffff" stroke-width="1"></rect></g><g class="highcharts-markers highcharts-series-12 highcharts-column-series highcharts-color-6 " transform="translate(71,62) scale(1 1)" width="305" height="519" clip-path="none"></g><g class="highcharts-series highcharts-series-13 highcharts-errorbar-series highcharts-color-undefined " transform="translate(71,62) scale(1 1)" width="305" height="519" clip-path="url(#highcharts-23)"><g class="highcharts-point"><path fill="none" class="highcharts-boxplot-stem" stroke="#000000" stroke-width="1" d="M 481.5 144 L 481.5 136 M 481.5 144 L 481.5 144"></path><path fill="none" class="highcharts-boxplot-whisker" stroke="#000000" stroke-width="1" d="M 466.5 136.5 L 496.5 136.5 M 466.5 144.5 L 496.5 144.5"></path><path fill="none" class="highcharts-boxplot-median" stroke="#000000" stroke-width="2" d="M 0 0"></path></g></g><g class="highcharts-markers highcharts-series-13 highcharts-errorbar-series highcharts-color-undefined " transform="translate(71,62) scale(1 1)" width="305" height="519" clip-path="none"></g></g><text x="300" text-anchor="middle" class="highcharts-title" style="color:#333333;font-size:18px;fill:#333333;width:536px;" y="24"><tspan>Throughput scores (ops/s)</tspan></text><text x="300" text-anchor="middle" class="highcharts-subtitle" style="color:#666666;fill:#666666;width:536px;" y="46"><tspan>c.f.e.DecodeBenchmark</tspan></text><g class="highcharts-legend" transform="translate(140,389)"><rect fill="none" class="highcharts-legend-box" rx="0" ry="0" x="0" y="0" width="320" height="116" visibility="visible"></rect><g><g><g class="highcharts-legend-item highcharts-column-series highcharts-color-0 highcharts-series-0" transform="translate(8,3)"><text x="21" style="color:#333333;font-size:12px;font-weight:bold;cursor:pointer;fill:#333333;" text-anchor="start" y="15">run(decodeType=JHEX_CHAR_ITERATOR)</text><rect x="2" y="4" width="12" height="12" fill="#4572A7" rx="6" ry="6" class="highcharts-point"></rect></g><g class="highcharts-legend-item highcharts-column-series highcharts-color-1 highcharts-series-2" transform="translate(8,18)"><text x="21" y="15" style="color:#333333;font-size:12px;font-weight:bold;cursor:pointer;fill:#333333;" text-anchor="start">run(decodeType=JHEX_TO_CHAR_ARRAY)</text><rect x="2" y="4" width="12" height="12" fill="#AA4643" rx="6" ry="6" class="highcharts-point"></rect></g><g class="highcharts-legend-item highcharts-column-series highcharts-color-2 highcharts-series-4" transform="translate(8,33)"><text x="21" y="15" style="color:#333333;font-size:12px;font-weight:bold;cursor:pointer;fill:#333333;" text-anchor="start">run(decodeType=JHEX_CHAR_ITERATOR_CHECKED)</text><rect x="2" y="4" width="12" height="12" fill="#89A54E" rx="6" ry="6" class="highcharts-point"></rect></g><g class="highcharts-legend-item highcharts-column-series highcharts-color-3 highcharts-series-6" transform="translate(8,48)"><text x="21" y="15" style="color:#333333;font-size:12px;font-weight:bold;cursor:pointer;fill:#333333;" text-anchor="start">run(decodeType=JHEX_TO_CHAR_ARRAY_CHECKED)</text><rect x="2" y="4" width="12" height="12" fill="#80699B" rx="6" ry="6" class="highcharts-point"></rect></g><g class="highcharts-legend-item highcharts-column-series highcharts-color-4 highcharts-series-8" transform="translate(8,63)"><text x="21" y="15" style="color:#333333;font-size:12px;font-weight:bold;cursor:pointer;fill:#333333;" text-anchor="start">run(decodeType=COMMONS_CODEC)</text><rect x="2" y="4" width="12" height="12" fill="#3D96AE" rx="6" ry="6" class="highcharts-point"></rect></g><g class="highcharts-legend-item highcharts-column-series highcharts-color-5 highcharts-series-10" transform="translate(8,78)"><text x="21" y="15" style="color:#333333;font-size:12px;font-weight:bold;cursor:pointer;fill:#333333;" text-anchor="start">run(decodeType=GUAVA)</text><rect x="2" y="4" width="12" height="12" fill="#DB843D" rx="6" ry="6" class="highcharts-point"></rect></g><g class="highcharts-legend-item highcharts-column-series highcharts-color-6 highcharts-series-12" transform="translate(8,93)"><text x="21" y="15" style="color:#333333;font-size:12px;font-weight:bold;cursor:pointer;fill:#333333;" text-anchor="start">run(decodeType=JMX_DATATYPE_CONVERTER)</text><rect x="2" y="4" width="12" height="12" fill="#92A8CD" rx="6" ry="6" class="highcharts-point"></rect></g></g></g></g><g class="highcharts-axis-labels highcharts-xaxis-labels "></g><g class="highcharts-axis-labels highcharts-yaxis-labels "><text x="56" style="color:#666666;cursor:default;font-size:11px;fill:#666666;width:188px;text-overflow:clip;" text-anchor="end" transform="translate(0,0)" y="372" opacity="1"><tspan>0</tspan></text><text x="56" style="color:#666666;cursor:default;font-size:11px;fill:#666666;width:188px;text-overflow:clip;" text-anchor="end" transform="translate(0,0)" y="311" opacity="1"><tspan>2M</tspan></text><text x="56" style="color:#666666;cursor:default;font-size:11px;fill:#666666;width:188px;text-overflow:clip;" text-anchor="end" transform="translate(0,0)" y="250" opacity="1"><tspan>4M</tspan></text><text x="56" style="color:#666666;cursor:default;font-size:11px;fill:#666666;width:188px;text-overflow:clip;" text-anchor="end" transform="translate(0,0)" y="189" opacity="1"><tspan>6M</tspan></text><text x="56" style="color:#666666;cursor:default;font-size:11px;fill:#666666;width:188px;text-overflow:clip;" text-anchor="end" transform="translate(0,0)" y="128" opacity="1"><tspan>8M</tspan></text><text x="56" style="color:#666666;cursor:default;font-size:11px;fill:#666666;width:188px;text-overflow:clip;" text-anchor="end" transform="translate(0,0)" y="67" opacity="1"><tspan>10M</tspan></text></g><g class="highcharts-label highcharts-tooltip" display="none" style="cursor:default;pointer-events:none;white-space:nowrap;" transform="translate(0,0)"><path fill="none" class="highcharts-label-box highcharts-tooltip-box" d="M 3.5 0.5 L 13.5 0.5 C 16.5 0.5 16.5 0.5 16.5 3.5 L 16.5 13.5 C 16.5 16.5 16.5 16.5 13.5 16.5 L 3.5 16.5 C 0.5 16.5 0.5 16.5 0.5 13.5 L 0.5 3.5 C 0.5 0.5 0.5 0.5 3.5 0.5"  stroke="#000000" stroke-opacity="0.049999999999999996" stroke-width="5" transform="translate(1, 1)"></path><path fill="none" class="highcharts-label-box highcharts-tooltip-box" d="M 3.5 0.5 L 13.5 0.5 C 16.5 0.5 16.5 0.5 16.5 3.5 L 16.5 13.5 C 16.5 16.5 16.5 16.5 13.5 16.5 L 3.5 16.5 C 0.5 16.5 0.5 16.5 0.5 13.5 L 0.5 3.5 C 0.5 0.5 0.5 0.5 3.5 0.5"  stroke="#000000" stroke-opacity="0.09999999999999999" stroke-width="3" transform="translate(1, 1)"></path><path fill="none" class="highcharts-label-box highcharts-tooltip-box" d="M 3.5 0.5 L 13.5 0.5 C 16.5 0.5 16.5 0.5 16.5 3.5 L 16.5 13.5 C 16.5 16.5 16.5 16.5 13.5 16.5 L 3.5 16.5 C 0.5 16.5 0.5 16.5 0.5 13.5 L 0.5 3.5 C 0.5 0.5 0.5 0.5 3.5 0.5"  stroke="#000000" stroke-opacity="0.15" stroke-width="1" transform="translate(1, 1)"></path><path fill="rgb(247,247,247)" fill-opacity="0.85" class="highcharts-label-box highcharts-tooltip-box" d="M 3.5 0.5 L 13.5 0.5 C 16.5 0.5 16.5 0.5 16.5 3.5 L 16.5 13.5 C 16.5 16.5 16.5 16.5 13.5 16.5 L 3.5 16.5 C 0.5 16.5 0.5 16.5 0.5 13.5 L 0.5 3.5 C 0.5 0.5 0.5 0.5 3.5 0.5"></path><text x="8" style="font-size:12px;color:#333333;fill:#333333;" y="20"></text></g></svg>