<?xml version="1.0" standalone="no"?><!DOCTYPE svg PUBLIC "-//W3C//DTD SVG 1.1//EN" "http://www.w3.org/Graphics/SVG/1.1/DTD/svg11.dtd"><svg xmlns:xlink="http://www.w3.org/1999/xlink" version="1.1" class="highcharts-root" style="font-family:signika, serif;font-size:12px;" xmlns="http://www.w3.org/2000/svg" width="600" viewBox="0 0 600 490" height="490"><desc>Created with Highcharts 5.0.0</desc><defs><clipPath id="highcharts-119"><rect x="0" y="0" width="525" height="245" fill="none"></rect></clipPath></defs><rect fill="#ffffff" class="highcharts-background" x="0" y="0" width="600" height="490" rx="0" ry="0"></rect><rect fill="none" class="highcharts-plot-background" x="65" y="62" width="525" height="245"></rect><g class="highcharts-grid highcharts-xaxis-grid "><path fill="none" class="highcharts-grid-line" d="M 327.5 62 L 327.5 307" opacity="1"></path></g><g class="highcharts-grid highcharts-yaxis-grid "><path fill="none" stroke="#e6e6e6" stroke-width="1" class="highcharts-grid-line" d="M 65 307.5 L 590 307.5" opacity="1"></path><path fill="none" stroke="#e6e6e6" stroke-width="1" class="highcharts-grid-line" d="M 65 246.5 L 590 246.5" opacity="1"></path><path fill="none" stroke="#e6e6e6" stroke-width="1" class="highcharts-grid-line" d="M 65 185.5 L 590 185.5" opacity="1"></path><path fill="none" stroke="#e6e6e6" stroke-width="1" class="highcharts-grid-line" d="M 65 123.5 L 590 123.5" opacity="1"></path><path fill="none" stroke="#e6e6e6" stroke-width="1" class="highcharts-grid-line" d="M 65 61.5 L 590 61.5" opacity="1"></path></g><rect fill="none" class="highcharts-plot-border" x="65" y="62" width="525" height="245"></rect><g class="highcharts-axis highcharts-xaxis "><path fill="none" class="highcharts-tick" stroke="#ccd6eb" stroke-width="1" d="M 327.5 307 L 327.5 317" opacity="1"></path><path fill="none" class="highcharts-axis-line" stroke="#ccd6eb" stroke-width="1" d="M 65 307.5 L 590 307.5"></path></g><g class="highcharts-axis highcharts-yaxis "><text x="25.296875" text-anchor="middle" transform="translate(0,0) rotate(270 25.296875 184.5)" class="highcharts-axis-title" style="color:#666666;fill:#666666;" y="184.5">ops/s</text><path fill="none" class="highcharts-axis-line" d="M 65 62 L 65 307"></path></g><g class="highcharts-series-group"><g class="highcharts-series highcharts-series-0 highcharts-column-series highcharts-color-0 " transform="translate(65,62) scale(1 1)" width="245" height="525" clip-path="url(#highcharts-119)"><rect x="5.5" y="87.5" width="47" height="158" fill="#4572A7" class="highcharts-point highcharts-color-0" stroke="#ffffff" stroke-width="1"></rect></g><g class="highcharts-markers highcharts-series-0 highcharts-column-series highcharts-color-0 " transform="translate(65,62) scale(1 1)" width="245" height="525" clip-path="none"></g><g class="highcharts-series highcharts-series-1 highcharts-errorbar-series highcharts-color-undefined " transform="translate(65,62) scale(1 1)" width="245" height="525" clip-path="url(#highcharts-119)"><g class="highcharts-point"><path fill="none" class="highcharts-boxplot-stem" stroke="#000000" stroke-width="1" d="M 29.5 98 L 29.5 76 M 29.5 98 L 29.5 98"></path><path fill="none" class="highcharts-boxplot-whisker" stroke="#000000" stroke-width="1" d="M 17.5 76.5 L 41.5 76.5 M 17.5 98.5 L 41.5 98.5"></path><path fill="none" class="highcharts-boxplot-median" stroke="#000000" stroke-width="2" d="M 0 0"></path></g></g><g class="highcharts-markers highcharts-series-1 highcharts-errorbar-series highcharts-color-undefined " transform="translate(65,62) scale(1 1)" width="245" height="525" clip-path="none"></g><g class="highcharts-series highcharts-series-2 highcharts-column-series highcharts-color-1 " transform="translate(65,62) scale(1 1)" width="245" height="525" clip-path="url(#highcharts-119)"><rect x="63.5" y="85.5" width="47" height="160" fill="#AA4643" class="highcharts-point highcharts-color-1" stroke="#ffffff" stroke-width="1"></rect></g><g class="highcharts-markers highcharts-series-2 highcharts-column-series highcharts-color-1 " transform="translate(65,62) scale(1 1)" width="245" height="525" clip-path="none"></g><g class="highcharts-series highcharts-series-3 highcharts-errorbar-series highcharts-color-undefined " transform="translate(65,62) scale(1 1)" width="245" height="525" clip-path="url(#highcharts-119)"><g class="highcharts-point"><path fill="none" class="highcharts-boxplot-stem" stroke="#000000" stroke-width="1" d="M 87.5 100 L 87.5 69 M 87.5 100 L 87.5 100"></path><path fill="none" class="highcharts-boxplot-whisker" stroke="#000000" stroke-width="1" d="M 75.5 69.5 L 99.5 69.5 M 75.5 100.5 L 99.5 100.5"></path><path fill="none" class="highcharts-boxplot-median" stroke="#000000" stroke-width="2" d="M 0 0"></path></g></g><g class="highcharts-markers highcharts-series-3 highcharts-errorbar-series highcharts-color-undefined " transform="translate(65,62) scale(1 1)" width="245" height="525" clip-path="none"></g><g class="highcharts-series highcharts-series-4 highcharts-column-series highcharts-color-2 " transform="translate(65,62) scale(1 1)" width="245" height="525" clip-path="url(#highcharts-119)"><rect x="122.5" y="99.5" width="47" height="146" fill="#89A54E" class="highcharts-point highcharts-color-2" stroke="#ffffff" stroke-width="1"></rect></g><g class="highcharts-markers highcharts-series-4 highcharts-column-series highcharts-color-2 " transform="translate(65,62) scale(1 1)" width="245" height="525" clip-path="none"></g><g class="highcharts-series highcharts-series-5 highcharts-errorbar-series highcharts-color-undefined " transform="translate(65,62) scale(1 1)" width="245" height="525" clip-path="url(#highcharts-119)"><g class="highcharts-point"><path fill="none" class="highcharts-boxplot-stem" stroke="#000000" stroke-width="1" d="M 146.5 111 L 146.5 85 M 146.5 111 L 146.5 111"></path><path fill="none" class="highcharts-boxplot-whisker" stroke="#000000" stroke-width="1" d="M 134.5 85.5 L 158.5 85.5 M 134.5 111.5 L 158.5 111.5"></path><path fill="none" class="highcharts-boxplot-median" stroke="#000000" stroke-width="2" d="M 0 0"></path></g></g><g class="highcharts-markers highcharts-series-5 highcharts-errorbar-series highcharts-color-undefined " transform="translate(65,62) scale(1 1)" width="245" height="525" clip-path="none"></g><g class="highcharts-series highcharts-series-6 highcharts-column-series highcharts-color-3 " transform="translate(65,62) scale(1 1)" width="245" height="525" clip-path="url(#highcharts-119)"><rect x="180.5" y="110.5" width="47" height="135" fill="#80699B" class="highcharts-point highcharts-color-3" stroke="#ffffff" stroke-width="1"></rect></g><g class="highcharts-markers highcharts-series-6 highcharts-column-series highcharts-color-3 " transform="translate(65,62) scale(1 1)" width="245" height="525" clip-path="none"></g><g class="highcharts-series highcharts-series-7 highcharts-errorbar-series highcharts-color-undefined " transform="translate(65,62) scale(1 1)" width="245" height="525" clip-path="url(#highcharts-119)"><g class="highcharts-point"><path fill="none" class="highcharts-boxplot-stem" stroke="#000000" stroke-width="1" d="M 204.5 117 L 204.5 102 M 204.5 117 L 204.5 117"></path><path fill="none" class="highcharts-boxplot-whisker" stroke="#000000" stroke-width="1" d="M 192.5 102.5 L 216.5 102.5 M 192.5 117.5 L 216.5 117.5"></path><path fill="none" class="highcharts-boxplot-median" stroke="#000000" stroke-width="2" d="M 0 0"></path></g></g><g class="highcharts-markers highcharts-series-7 highcharts-errorbar-series highcharts-color-undefined " transform="translate(65,62) scale(1 1)" width="245" height="525" clip-path="none"></g><g class="highcharts-series highcharts-series-8 highcharts-column-series highcharts-color-4 " transform="translate(65,62) scale(1 1)" width="245" height="525" clip-path="url(#highcharts-119)"><rect x="238.5" y="98.5" width="47" height="147" fill="#3D96AE" class="highcharts-point highcharts-color-4" stroke="#ffffff" stroke-width="1"></rect></g><g class="highcharts-markers highcharts-series-8 highcharts-column-series highcharts-color-4 " transform="translate(65,62) scale(1 1)" width="245" height="525" clip-path="none"></g><g class="highcharts-series highcharts-series-9 highcharts-errorbar-series highcharts-color-undefined " transform="translate(65,62) scale(1 1)" width="245" height="525" clip-path="url(#highcharts-119)"><g class="highcharts-point"><path fill="none" class="highcharts-boxplot-stem" stroke="#000000" stroke-width="1" d="M 262.5 103 L 262.5 92 M 262.5 103 L 262.5 103"></path><path fill="none" class="highcharts-boxplot-whisker" stroke="#000000" stroke-width="1" d="M 250.5 92.5 L 274.5 92.5 M 250.5 103.5 L 274.5 103.5"></path><path fill="none" class="highcharts-boxplot-median" stroke="#000000" stroke-width="2" d="M 0 0"></path></g></g><g class="highcharts-markers highcharts-series-9 highcharts-errorbar-series highcharts-color-undefined " transform="translate(65,62) scale(1 1)" width="245" height="525" clip-path="none"></g><g class="highcharts-series highcharts-series-10 highcharts-column-series highcharts-color-5 " transform="translate(65,62) scale(1 1)" width="245" height="525" clip-path="url(#highcharts-119)"><rect x="297.5" y="104.5" width="47" height="141" fill="#DB843D" class="highcharts-point highcharts-color-5" stroke="#ffffff" stroke-width="1"></rect></g><g class="highcharts-markers highcharts-series-10 highcharts-column-series highcharts-color-5 " transform="translate(65,62) scale(1 1)" width="245" height="525" clip-path="none"></g><g class="highcharts-series highcharts-series-11 highcharts-errorbar-series highcharts-color-undefined " transform="translate(65,62) scale(1 1)" width="245" height="525" clip-path="url(#highcharts-119)"><g class="highcharts-point"><path fill="none" class="highcharts-boxplot-stem" stroke="#000000" stroke-width="1" d="M 321.5 106 L 321.5 100 M 321.5 106 L 321.5 106"></path><path fill="none" class="highcharts-boxplot-whisker" stroke="#000000" stroke-width="1" d="M 309.5 100.5 L 333.5 100.5 M 309.5 106.5 L 333.5 106.5"></path><path fill="none" class="highcharts-boxplot-median" stroke="#000000" stroke-width="2" d="M 0 0"></path></g></g><g class="highcharts-markers highcharts-series-11 highcharts-errorbar-series highcharts-color-undefined " transform="translate(65,62) scale(1 1)" width="245" height="525" clip-path="none"></g><g class="highcharts-series highcharts-series-12 highcharts-column-series highcharts-color-6 " transform="translate(65,62) scale(1 1)" width="245" height="525" clip-path="url(#highcharts-119)"><rect x="355.5" y="182.5" width="47" height="63" fill="#92A8CD" class="highcharts-point highcharts-color-6" stroke="#ffffff" stroke-width="1"></rect></g><g class="highcharts-markers highcharts-series-12 highcharts-column-series highcharts-color-6 " transform="translate(65,62) scale(1 1)" width="245" height="525" clip-path="none"></g><g class="highcharts-series highcharts-series-13 highcharts-errorbar-series highcharts-color-undefined " transform="translate(65,62) scale(1 1)" width="245" height="525" clip-path="url(#highcharts-119)"><g class="highcharts-point"><path fill="none" class="highcharts-boxplot-stem" stroke="#000000" stroke-width="1" d="M 379.5 185 L 379.5 179 M 379.5 185 L 379.5 185"></path><path fill="none" class="highcharts-boxplot-whisker" stroke="#000000" stroke-width="1" d="M 367.5 179.5 L 391.5 179.5 M 367.5 185.5 L 391.5 185.5"></path><path fill="none" class="highcharts-boxplot-median" stroke="#000000" stroke-width="2" d="M 0 0"></path></g></g><g class="highcharts-markers highcharts-series-13 highcharts-errorbar-series highcharts-color-undefined " transform="translate(65,62) scale(1 1)" width="245" height="525" clip-path="none"></g><g class="highcharts-series highcharts-series-14 highcharts-column-series highcharts-color-7 " transform="translate(65,62) scale(1 1)" width="245" height="525" clip-path="url(#highcharts-119)"><rect x="413.5" y="202.5" width="47" height="43" fill="#A47D7C" class="highcharts-point highcharts-color-7" stroke="#ffffff" stroke-width="1"></rect></g><g class="highcharts-markers highcharts-series-14 highcharts-column-series highcharts-color-7 " transform="translate(65,62) scale(1 1)" width="245" height="525" clip-path="none"></g><g class="highcharts-series highcharts-series-15 highcharts-errorbar-series highcharts-color-undefined " transform="translate(65,62) scale(1 1)" width="245" height="525" clip-path="url(#highcharts-119)"><g class="highcharts-point"><path fill="none" class="highcharts-boxplot-stem" stroke="#000000" stroke-width="1" d="M 437.5 203 L 437.5 200 M 437.5 203 L 437.5 203"></path><path fill="none" class="highcharts-boxplot-whisker" stroke="#000000" stroke-width="1" d="M 425.5 200.5 L 449.5 200.5 M 425.5 203.5 L 449.5 203.5"></path><path fill="none" class="highcharts-boxplot-median" stroke="#000000" stroke-width="2" d="M 0 0"></path></g></g><g class="highcharts-markers highcharts-series-15 highcharts-errorbar-series highcharts-color-undefined " transform="translate(65,62) scale(1 1)" width="245" height="525" clip-path="none"></g><g class="highcharts-series highcharts-series-16 highcharts-column-series highcharts-color-8 " transform="translate(65,62) scale(1 1)" width="245" height="525" clip-path="url(#highcharts-119)"><rect x="472.5" y="190.5" width="47" height="55" fill="#B5CA92" class="highcharts-point highcharts-color-8" stroke="#ffffff" stroke-width="1"></rect></g><g class="highcharts-markers highcharts-series-16 highcharts-column-series highcharts-color-8 " transform="translate(65,62) scale(1 1)" width="245" height="525" clip-path="none"></g><g class="highcharts-series highcharts-series-17 highcharts-errorbar-series highcharts-color-undefined " transform="translate(65,62) scale(1 1)" width="245" height="525" clip-path="url(#highcharts-119)"><g class="highcharts-point"><path fill="none" class="highcharts-boxplot-stem" stroke="#000000" stroke-width="1" d="M 496.5 192 L 496.5 187 M 496.5 192 L 496.5 192"></path><path fill="none" class="highcharts-boxplot-whisker" stroke="#000000" stroke-width="1" d="M 484.5 187.5 L 508.5 187.5 M 484.5 192.5 L 508.5 192.5"></path><path fill="none" class="highcharts-boxplot-median" stroke="#000000" stroke-width="2" d="M 0 0"></path></g></g><g class="highcharts-markers highcharts-series-17 highcharts-errorbar-series highcharts-color-undefined " transform="translate(65,62) scale(1 1)" width="245" height="525" clip-path="none"></g></g><text x="300" text-anchor="middle" class="highcharts-title" style="color:#333333;font-size:18px;fill:#333333;width:536px;" y="24"><tspan>Throughput scores (ops/s)</tspan></text><text x="300" text-anchor="middle" class="highcharts-subtitle" style="color:#666666;fill:#666666;width:536px;" y="46"><tspan>c.f.e.DecodeBenchmark</tspan></text><g class="highcharts-legend" transform="translate(140,329)"><rect fill="none" class="highcharts-legend-box" rx="0" ry="0" x="0" y="0" width="320" height="146" visibility="visible"></rect><g><g><g class="highcharts-legend-item highcharts-column-series highcharts-color-0 highcharts-series-0" transform="translate(8,3)"><text x="21" style="color:#333333;font-size:12px;font-weight:bold;cursor:pointer;fill:#333333;" text-anchor="start" y="15">run(decodeType=JHEX_TO_CHAR_ARRAY)</text><rect x="2" y="4" width="12" height="12" fill="#4572A7" rx="6" ry="6" class="highcharts-point"></rect></g><g class="highcharts-legend-item highcharts-column-series highcharts-color-1 highcharts-series-2" transform="translate(8,18)"><text x="21" y="15" style="color:#333333;font-size:12px;font-weight:bold;cursor:pointer;fill:#333333;" text-anchor="start">run(decodeType=JHEX_CHAR_AT)</text><rect x="2" y="4" width="12" height="12" fill="#AA4643" rx="6" ry="6" class="highcharts-point"></rect></g><g class="highcharts-legend-item highcharts-column-series highcharts-color-2 highcharts-series-4" transform="translate(8,33)"><text x="21" y="15" style="color:#333333;font-size:12px;font-weight:bold;cursor:pointer;fill:#333333;" text-anchor="start">run(decodeType=JHEX_CHAR_ITERATOR)</text><rect x="2" y="4" width="12" height="12" fill="#89A54E" rx="6" ry="6" class="highcharts-point"></rect></g><g class="highcharts-legend-item highcharts-column-series highcharts-color-3 highcharts-series-6" transform="translate(8,48)"><text x="21" y="15" style="color:#333333;font-size:12px;font-weight:bold;cursor:pointer;fill:#333333;" text-anchor="start">run(decodeType=JHEX_TO_CHAR_ARRAY_CHECKED)</text><rect x="2" y="4" width="12" height="12" fill="#80699B" rx="6" ry="6" class="highcharts-point"></rect></g><g class="highcharts-legend-item highcharts-column-series highcharts-color-4 highcharts-series-8" transform="translate(8,63)"><text x="21" y="15" style="color:#333333;font-size:12px;font-weight:bold;cursor:pointer;fill:#333333;" text-anchor="start">run(decodeType=JHEX_CHAR_AT_CHECKED)</text><rect x="2" y="4" width="12" height="12" fill="#3D96AE" rx="6" ry="6" class="highcharts-point"></rect></g><g class="highcharts-legend-item highcharts-column-series highcharts-color-5 highcharts-series-10" transform="translate(8,78)"><text x="21" y="15" style="color:#333333;font-size:12px;font-weight:bold;cursor:pointer;fill:#333333;" text-anchor="start">run(decodeType=JHEX_CHAR_ITERATOR_CHECKED)</text><rect x="2" y="4" width="12" height="12" fill="#DB843D" rx="6" ry="6" class="highcharts-point"></rect></g><g class="highcharts-legend-item highcharts-column-series highcharts-color-6 highcharts-series-12" transform="translate(8,93)"><text x="21" y="15" style="color:#333333;font-size:12px;font-weight:bold;cursor:pointer;fill:#333333;" text-anchor="start">run(decodeType=GUAVA)</text><rect x="2" y="4" width="12" height="12" fill="#92A8CD" rx="6" ry="6" class="highcharts-point"></rect></g><g class="highcharts-legend-item highcharts-column-series highcharts-color-7 highcharts-series-14" transform="translate(8,108)"><text x="21" y="15" style="color:#333333;font-size:12px;font-weight:bold;cursor:pointer;fill:#333333;" text-anchor="start">run(decodeType=COMMONS_CODEC)</text><rect x="2" y="4" width="12" height="12" fill="#A47D7C" rx="6" ry="6" class="highcharts-point"></rect></g><g class="highcharts-legend-item highcharts-column-series highcharts-color-8 highcharts-series-16" transform="translate(8,123)"><text x="21" y="15" style="color:#333333;font-size:12px;font-weight:bold;cursor:pointer;fill:#333333;" text-anchor="start">run(decodeType=JMX_DATATYPE_CONVERTER)</text><rect x="2" y="4" width="12" height="12" fill="#B5CA92" rx="6" ry="6" class="highcharts-point"></rect></g></g></g></g><g class="highcharts-axis-labels highcharts-xaxis-labels "></g><g class="highcharts-axis-labels highcharts-yaxis-labels "><text x="50" style="color:#666666;cursor:default;font-size:11px;fill:#666666;width:188px;text-overflow:clip;" text-anchor="end" transform="translate(0,0)" y="312" opacity="1"><tspan>0</tspan></text><text x="50" style="color:#666666;cursor:default;font-size:11px;fill:#666666;width:188px;text-overflow:clip;" text-anchor="end" transform="translate(0,0)" y="250" opacity="1"><tspan>1M</tspan></text><text x="50" style="color:#666666;cursor:default;font-size:11px;fill:#666666;width:188px;text-overflow:clip;" text-anchor="end" transform="translate(0,0)" y="189" opacity="1"><tspan>2M</tspan></text><text x="50" style="color:#666666;cursor:default;font-size:11px;fill:#666666;width:188px;text-overflow:clip;" text-anchor="end" transform="translate(0,0)" y="128" opacity="1"><tspan>3M</tspan></text><text x="50" style="color:#666666;cursor:default;font-size:11px;fill:#666666;width:188px;text-overflow:clip;" text-anchor="end" transform="translate(0,0)" y="67" opacity="1"><tspan>4M</tspan></text></g><g class="highcharts-label highcharts-tooltip" display="none" style="cursor:default;pointer-events:none;white-space:nowrap;" transform="translate(0,0)"><path fill="none" class="highcharts-label-box highcharts-tooltip-box" d="M 3.5 0.5 L 13.5 0.5 C 16.5 0.5 16.5 0.5 16.5 3.5 L 16.5 13.5 C 16.5 16.5 16.5 16.5 13.5 16.5 L 3.5 16.5 C 0.5 16.5 0.5 16.5 0.5 13.5 L 0.5 3.5 C 0.5 0.5 0.5 0.5 3.5 0.5"  stroke="#000000" stroke-opacity="0.049999999999999996" stroke-width="5" transform="translate(1, 1)"></path><path fill="none" class="highcharts-label-box highcharts-tooltip-box" d="M 3.5 0.5 L 13.5 0.5 C 16.5 0.5 16.5 0.5 16.5 3.5 L 16.5 13.5 C 16.5 16.5 16.5 16.5 13.5 16.5 L 3.5 16.5 C 0.5 16.5 0.5 16.5 0.5 13.5 L 0.5 3.5 C 0.5 0.5 0.5 0.5 3.5 0.5"  stroke="#000000" stroke-opacity="0.09999999999999999" stroke-width="3" transform="translate(1, 1)"></path><path fill="none" class="highcharts-label-box highcharts-tooltip-box" d="M 3.5 0.5 L 13.5 0.5 C 16.5 0.5 16.5 0.5 16.5 3.5 L 16.5 13.5 C 16.5 16.5 16.5 16.5 13.5 16.5 L 3.5 16.5 C 0.5 16.5 0.5 16.5 0.5 13.5 L 0.5 3.5 C 0.5 0.5 0.5 0.5 3.5 0.5"  stroke="#000000" stroke-opacity="0.15" stroke-width="1" transform="translate(1, 1)"></path><path fill="rgb(247,247,247)" fill-opacity="0.85" class="highcharts-label-box highcharts-tooltip-box" d="M 3.5 0.5 L 13.5 0.5 C 16.5 0.5 16.5 0.5 16.5 3.5 L 16.5 13.5 C 16.5 16.5 16.5 16.5 13.5 16.5 L 3.5 16.5 C 0.5 16.5 0.5 16.5 0.5 13.5 L 0.5 3.5 C 0.5 0.5 0.5 0.5 3.5 0.5"></path><text x="8" style="font-size:12px;color:#333333;fill:#333333;" y="20"></text></g></svg>