<?xml version="1.0" standalone="no"?><!DOCTYPE svg PUBLIC "-//W3C//DTD SVG 1.1//EN"
  "http://www.w3.org/Graphics/SVG/1.1/DTD/svg11.dtd">
<svg style="font-family:signika, serif;font-size:12px;" class="highcharts-root"
  height="490" version="1.1" viewBox="0 0 600 490"
  width="600" xmlns="http://www.w3.org/2000/svg">
  <desc>Created with Highcharts 5.0.0</desc>
  <defs>
    <clipPath id="highcharts-73">
      <rect fill="none" height="245" width="525" x="0" y="0"></rect>
    </clipPath>
  </defs>
  <rect class="highcharts-background" fill="#ffffff" height="490" rx="0" ry="0" width="600" x="0"
    y="0"></rect>
  <rect class="highcharts-plot-background" fill="none" height="245" width="525" x="65"
    y="62"></rect>
  <g class="highcharts-grid highcharts-xaxis-grid ">
    <path class="highcharts-grid-line" d="M 327.5 62 L 327.5 307" fill="none" opacity="1"></path>
  </g>
  <g class="highcharts-grid highcharts-yaxis-grid ">
    <path class="highcharts-grid-line" d="M 65 307.5 L 590 307.5" fill="none" opacity="1"
      stroke="#e6e6e6" stroke-width="1"></path>
    <path class="highcharts-grid-line" d="M 65 225.5 L 590 225.5" fill="none" opacity="1"
      stroke="#e6e6e6" stroke-width="1"></path>
    <path class="highcharts-grid-line" d="M 65 144.5 L 590 144.5" fill="none" opacity="1"
      stroke="#e6e6e6" stroke-width="1"></path>
    <path class="highcharts-grid-line" d="M 65 61.5 L 590 61.5" fill="none" opacity="1"
      stroke="#e6e6e6" stroke-width="1"></path>
  </g>
  <rect class="highcharts-plot-border" fill="none" height="245" width="525" x="65" y="62"></rect>
  <g class="highcharts-axis highcharts-xaxis ">
    <path class="highcharts-tick" d="M 327.5 307 L 327.5 317" fill="none" opacity="1"
      stroke="#ccd6eb" stroke-width="1"></path>
    <path class="highcharts-axis-line" d="M 65 307.5 L 590 307.5" fill="none" stroke="#ccd6eb"
      stroke-width="1"></path>
  </g>
  <g class="highcharts-axis highcharts-yaxis ">
    <text style="color:#666666;fill:#666666;" class="highcharts-axis-title" text-anchor="middle"
      transform="translate(0,0) rotate(270 25.296875 184.5)" x="25.296875" y="184.5">ops/s
    </text>
    <path class="highcharts-axis-line" d="M 65 62 L 65 307" fill="none"></path>
  </g>
  <g class="highcharts-series-group">
    <g class="highcharts-series highcharts-series-0 highcharts-column-series highcharts-color-0 "
      clip-path="url(#highcharts-73)" height="525" transform="translate(65,62) scale(1 1)"
      width="245">
      <rect class="highcharts-point highcharts-color-0" fill="#4572A7" height="171" stroke="#ffffff" stroke-width="1"
        width="47" x="5.5" y="74.5"></rect>
    </g>
    <g class="highcharts-markers highcharts-series-0 highcharts-column-series highcharts-color-0 "
      clip-path="none" height="525" transform="translate(65,62) scale(1 1)" width="245"></g>
    <g
      class="highcharts-series highcharts-series-1 highcharts-errorbar-series highcharts-color-undefined "
      clip-path="url(#highcharts-73)" height="525" transform="translate(65,62) scale(1 1)"
      width="245">
      <g class="highcharts-point">
        <path class="highcharts-boxplot-stem" d="M 29.5 81 L 29.5 67 M 29.5 81 L 29.5 81" fill="none" stroke="#000000"
          stroke-width="1"></path>
        <path class="highcharts-boxplot-whisker" d="M 17.5 67.5 L 41.5 67.5 M 17.5 81.5 L 41.5 81.5" fill="none" stroke="#000000"
          stroke-width="1"></path>
        <path class="highcharts-boxplot-median" d="M 0 0" fill="none" stroke="#000000"
          stroke-width="2"></path>
      </g>
    </g>
    <g
      class="highcharts-markers highcharts-series-1 highcharts-errorbar-series highcharts-color-undefined "
      clip-path="none" height="525" transform="translate(65,62) scale(1 1)" width="245"></g>
    <g class="highcharts-series highcharts-series-2 highcharts-column-series highcharts-color-1 "
      clip-path="url(#highcharts-73)" height="525" transform="translate(65,62) scale(1 1)"
      width="245">
      <rect class="highcharts-point highcharts-color-1" fill="#AA4643" height="204" stroke="#ffffff" stroke-width="1"
        width="47" x="63.5" y="41.5"></rect>
    </g>
    <g class="highcharts-markers highcharts-series-2 highcharts-column-series highcharts-color-1 "
      clip-path="none" height="525" transform="translate(65,62) scale(1 1)" width="245"></g>
    <g
      class="highcharts-series highcharts-series-3 highcharts-errorbar-series highcharts-color-undefined "
      clip-path="url(#highcharts-73)" height="525" transform="translate(65,62) scale(1 1)"
      width="245">
      <g class="highcharts-point">
        <path class="highcharts-boxplot-stem" d="M 87.5 44 L 87.5 38 M 87.5 44 L 87.5 44" fill="none" stroke="#000000"
          stroke-width="1"></path>
        <path class="highcharts-boxplot-whisker" d="M 75.5 38.5 L 99.5 38.5 M 75.5 44.5 L 99.5 44.5" fill="none" stroke="#000000"
          stroke-width="1"></path>
        <path class="highcharts-boxplot-median" d="M 0 0" fill="none" stroke="#000000"
          stroke-width="2"></path>
      </g>
    </g>
    <g
      class="highcharts-markers highcharts-series-3 highcharts-errorbar-series highcharts-color-undefined "
      clip-path="none" height="525" transform="translate(65,62) scale(1 1)" width="245"></g>
    <g class="highcharts-series highcharts-series-4 highcharts-column-series highcharts-color-2 "
      clip-path="url(#highcharts-73)" height="525" transform="translate(65,62) scale(1 1)"
      width="245">
      <rect class="highcharts-point highcharts-color-2" fill="#89A54E" height="197" stroke="#ffffff" stroke-width="1"
        width="47" x="122.5" y="48.5"></rect>
    </g>
    <g class="highcharts-markers highcharts-series-4 highcharts-column-series highcharts-color-2 "
      clip-path="none" height="525" transform="translate(65,62) scale(1 1)" width="245"></g>
    <g
      class="highcharts-series highcharts-series-5 highcharts-errorbar-series highcharts-color-undefined "
      clip-path="url(#highcharts-73)" height="525" transform="translate(65,62) scale(1 1)"
      width="245">
      <g class="highcharts-point">
        <path class="highcharts-boxplot-stem" d="M 146.5 55 L 146.5 40 M 146.5 55 L 146.5 55" fill="none" stroke="#000000"
          stroke-width="1"></path>
        <path class="highcharts-boxplot-whisker" d="M 134.5 40.5 L 158.5 40.5 M 134.5 55.5 L 158.5 55.5" fill="none" stroke="#000000"
          stroke-width="1"></path>
        <path class="highcharts-boxplot-median" d="M 0 0" fill="none" stroke="#000000"
          stroke-width="2"></path>
      </g>
    </g>
    <g
      class="highcharts-markers highcharts-series-5 highcharts-errorbar-series highcharts-color-undefined "
      clip-path="none" height="525" transform="translate(65,62) scale(1 1)" width="245"></g>
    <g class="highcharts-series highcharts-series-6 highcharts-column-series highcharts-color-3 "
      clip-path="url(#highcharts-73)" height="525" transform="translate(65,62) scale(1 1)"
      width="245">
      <rect class="highcharts-point highcharts-color-3" fill="#80699B" height="159" stroke="#ffffff" stroke-width="1"
        width="47" x="180.5" y="86.5"></rect>
    </g>
    <g class="highcharts-markers highcharts-series-6 highcharts-column-series highcharts-color-3 "
      clip-path="none" height="525" transform="translate(65,62) scale(1 1)" width="245"></g>
    <g
      class="highcharts-series highcharts-series-7 highcharts-errorbar-series highcharts-color-undefined "
      clip-path="url(#highcharts-73)" height="525" transform="translate(65,62) scale(1 1)"
      width="245">
      <g class="highcharts-point">
        <path class="highcharts-boxplot-stem" d="M 204.5 92 L 204.5 78 M 204.5 92 L 204.5 92" fill="none" stroke="#000000"
          stroke-width="1"></path>
        <path class="highcharts-boxplot-whisker" d="M 192.5 78.5 L 216.5 78.5 M 192.5 92.5 L 216.5 92.5" fill="none" stroke="#000000"
          stroke-width="1"></path>
        <path class="highcharts-boxplot-median" d="M 0 0" fill="none" stroke="#000000"
          stroke-width="2"></path>
      </g>
    </g>
    <g
      class="highcharts-markers highcharts-series-7 highcharts-errorbar-series highcharts-color-undefined "
      clip-path="none" height="525" transform="translate(65,62) scale(1 1)" width="245"></g>
    <g class="highcharts-series highcharts-series-8 highcharts-column-series highcharts-color-4 "
      clip-path="url(#highcharts-73)" height="525" transform="translate(65,62) scale(1 1)"
      width="245">
      <rect class="highcharts-point highcharts-color-4" fill="#3D96AE" height="198" stroke="#ffffff" stroke-width="1"
        width="47" x="238.5" y="47.5"></rect>
    </g>
    <g class="highcharts-markers highcharts-series-8 highcharts-column-series highcharts-color-4 "
      clip-path="none" height="525" transform="translate(65,62) scale(1 1)" width="245"></g>
    <g
      class="highcharts-series highcharts-series-9 highcharts-errorbar-series highcharts-color-undefined "
      clip-path="url(#highcharts-73)" height="525" transform="translate(65,62) scale(1 1)"
      width="245">
      <g class="highcharts-point">
        <path class="highcharts-boxplot-stem" d="M 262.5 49 L 262.5 44 M 262.5 49 L 262.5 49" fill="none" stroke="#000000"
          stroke-width="1"></path>
        <path class="highcharts-boxplot-whisker" d="M 250.5 44.5 L 274.5 44.5 M 250.5 49.5 L 274.5 49.5" fill="none" stroke="#000000"
          stroke-width="1"></path>
        <path class="highcharts-boxplot-median" d="M 0 0" fill="none" stroke="#000000"
          stroke-width="2"></path>
      </g>
    </g>
    <g
      class="highcharts-markers highcharts-series-9 highcharts-errorbar-series highcharts-color-undefined "
      clip-path="none" height="525" transform="translate(65,62) scale(1 1)" width="245"></g>
    <g class="highcharts-series highcharts-series-10 highcharts-column-series highcharts-color-5 "
      clip-path="url(#highcharts-73)" height="525" transform="translate(65,62) scale(1 1)"
      width="245">
      <rect class="highcharts-point highcharts-color-5" fill="#DB843D" height="189" stroke="#ffffff" stroke-width="1"
        width="47" x="297.5" y="56.5"></rect>
    </g>
    <g class="highcharts-markers highcharts-series-10 highcharts-column-series highcharts-color-5 "
      clip-path="none" height="525" transform="translate(65,62) scale(1 1)" width="245"></g>
    <g
      class="highcharts-series highcharts-series-11 highcharts-errorbar-series highcharts-color-undefined "
      clip-path="url(#highcharts-73)" height="525" transform="translate(65,62) scale(1 1)"
      width="245">
      <g class="highcharts-point">
        <path class="highcharts-boxplot-stem" d="M 321.5 61 L 321.5 51 M 321.5 61 L 321.5 61" fill="none" stroke="#000000"
          stroke-width="1"></path>
        <path class="highcharts-boxplot-whisker" d="M 309.5 51.5 L 333.5 51.5 M 309.5 61.5 L 333.5 61.5" fill="none" stroke="#000000"
          stroke-width="1"></path>
        <path class="highcharts-boxplot-median" d="M 0 0" fill="none" stroke="#000000"
          stroke-width="2"></path>
      </g>
    </g>
    <g
      class="highcharts-markers highcharts-series-11 highcharts-errorbar-series highcharts-color-undefined "
      clip-path="none" height="525" transform="translate(65,62) scale(1 1)" width="245"></g>
    <g class="highcharts-series highcharts-series-12 highcharts-column-series highcharts-color-6 "
      clip-path="url(#highcharts-73)" height="525" transform="translate(65,62) scale(1 1)"
      width="245">
      <rect class="highcharts-point highcharts-color-6" fill="#92A8CD" height="147" stroke="#ffffff" stroke-width="1"
        width="47" x="355.5" y="98.5"></rect>
    </g>
    <g class="highcharts-markers highcharts-series-12 highcharts-column-series highcharts-color-6 "
      clip-path="none" height="525" transform="translate(65,62) scale(1 1)" width="245"></g>
    <g
      class="highcharts-series highcharts-series-13 highcharts-errorbar-series highcharts-color-undefined "
      clip-path="url(#highcharts-73)" height="525" transform="translate(65,62) scale(1 1)"
      width="245">
      <g class="highcharts-point">
        <path class="highcharts-boxplot-stem" d="M 379.5 103 L 379.5 93 M 379.5 103 L 379.5 103" fill="none" stroke="#000000"
          stroke-width="1"></path>
        <path class="highcharts-boxplot-whisker" d="M 367.5 93.5 L 391.5 93.5 M 367.5 103.5 L 391.5 103.5" fill="none" stroke="#000000"
          stroke-width="1"></path>
        <path class="highcharts-boxplot-median" d="M 0 0" fill="none" stroke="#000000"
          stroke-width="2"></path>
      </g>
    </g>
    <g
      class="highcharts-markers highcharts-series-13 highcharts-errorbar-series highcharts-color-undefined "
      clip-path="none" height="525" transform="translate(65,62) scale(1 1)" width="245"></g>
    <g class="highcharts-series highcharts-series-14 highcharts-column-series highcharts-color-7 "
      clip-path="url(#highcharts-73)" height="525" transform="translate(65,62) scale(1 1)"
      width="245">
      <rect class="highcharts-point highcharts-color-7" fill="#A47D7C" height="83" stroke="#ffffff" stroke-width="1"
        width="47" x="413.5" y="162.5"></rect>
    </g>
    <g class="highcharts-markers highcharts-series-14 highcharts-column-series highcharts-color-7 "
      clip-path="none" height="525" transform="translate(65,62) scale(1 1)" width="245"></g>
    <g
      class="highcharts-series highcharts-series-15 highcharts-errorbar-series highcharts-color-undefined "
      clip-path="url(#highcharts-73)" height="525" transform="translate(65,62) scale(1 1)"
      width="245">
      <g class="highcharts-point">
        <path class="highcharts-boxplot-stem" d="M 437.5 163 L 437.5 161 M 437.5 163 L 437.5 163" fill="none" stroke="#000000"
          stroke-width="1"></path>
        <path class="highcharts-boxplot-whisker" d="M 425.5 161.5 L 449.5 161.5 M 425.5 163.5 L 449.5 163.5" fill="none" stroke="#000000"
          stroke-width="1"></path>
        <path class="highcharts-boxplot-median" d="M 0 0" fill="none" stroke="#000000"
          stroke-width="2"></path>
      </g>
    </g>
    <g
      class="highcharts-markers highcharts-series-15 highcharts-errorbar-series highcharts-color-undefined "
      clip-path="none" height="525" transform="translate(65,62) scale(1 1)" width="245"></g>
    <g class="highcharts-series highcharts-series-16 highcharts-column-series highcharts-color-8 "
      clip-path="url(#highcharts-73)" height="525" transform="translate(65,62) scale(1 1)"
      width="245">
      <rect class="highcharts-point highcharts-color-8" fill="#B5CA92" height="109" stroke="#ffffff" stroke-width="1"
        width="47" x="472.5" y="136.5"></rect>
    </g>
    <g class="highcharts-markers highcharts-series-16 highcharts-column-series highcharts-color-8 "
      clip-path="none" height="525" transform="translate(65,62) scale(1 1)" width="245"></g>
    <g
      class="highcharts-series highcharts-series-17 highcharts-errorbar-series highcharts-color-undefined "
      clip-path="url(#highcharts-73)" height="525" transform="translate(65,62) scale(1 1)"
      width="245">
      <g class="highcharts-point">
        <path class="highcharts-boxplot-stem" d="M 496.5 140 L 496.5 132 M 496.5 140 L 496.5 140" fill="none" stroke="#000000"
          stroke-width="1"></path>
        <path class="highcharts-boxplot-whisker" d="M 484.5 132.5 L 508.5 132.5 M 484.5 140.5 L 508.5 140.5" fill="none" stroke="#000000"
          stroke-width="1"></path>
        <path class="highcharts-boxplot-median" d="M 0 0" fill="none" stroke="#000000"
          stroke-width="2"></path>
      </g>
    </g>
    <g
      class="highcharts-markers highcharts-series-17 highcharts-errorbar-series highcharts-color-undefined "
      clip-path="none" height="525" transform="translate(65,62) scale(1 1)" width="245"></g>
  </g>
  <text style="color:#333333;font-size:18px;fill:#333333;width:536px;" class="highcharts-title" text-anchor="middle"
    x="300" y="24">
    <tspan>Throughput scores (ops/s)</tspan>
  </text>
  <text style="color:#666666;fill:#666666;width:536px;" class="highcharts-subtitle" text-anchor="middle"
    x="300" y="46">
    <tspan>c.f.e.DecodeBenchmark</tspan>
  </text>
  <g class="highcharts-legend" transform="translate(140,329)">
    <rect class="highcharts-legend-box" fill="none" height="146" rx="0" ry="0" visibility="visible" width="320"
      x="0" y="0"></rect>
    <g>
      <g>
        <g
          class="highcharts-legend-item highcharts-column-series highcharts-color-0 highcharts-series-0"
          transform="translate(8,3)">
          <text style="color:#333333;font-size:12px;font-weight:bold;cursor:pointer;fill:#333333;"
            text-anchor="start"
            x="21" y="15">run(decodeType=JHEX_TO_CHAR_ARRAY)
          </text>
          <rect class="highcharts-point" fill="#4572A7" height="12" rx="6" ry="6" width="12" x="2"
            y="4"></rect>
        </g>
        <g
          class="highcharts-legend-item highcharts-column-series highcharts-color-1 highcharts-series-2"
          transform="translate(8,18)">
          <text style="color:#333333;font-size:12px;font-weight:bold;cursor:pointer;fill:#333333;" text-anchor="start"
            x="21"
            y="15">run(decodeType=JHEX_CHAR_AT)
          </text>
          <rect class="highcharts-point" fill="#AA4643" height="12" rx="6" ry="6" width="12" x="2"
            y="4"></rect>
        </g>
        <g
          class="highcharts-legend-item highcharts-column-series highcharts-color-2 highcharts-series-4"
          transform="translate(8,33)">
          <text style="color:#333333;font-size:12px;font-weight:bold;cursor:pointer;fill:#333333;" text-anchor="start"
            x="21"
            y="15">run(decodeType=JHEX_CHAR_ITERATOR)
          </text>
          <rect class="highcharts-point" fill="#89A54E" height="12" rx="6" ry="6" width="12" x="2"
            y="4"></rect>
        </g>
        <g
          class="highcharts-legend-item highcharts-column-series highcharts-color-3 highcharts-series-6"
          transform="translate(8,48)">
          <text style="color:#333333;font-size:12px;font-weight:bold;cursor:pointer;fill:#333333;" text-anchor="start"
            x="21"
            y="15">run(decodeType=JHEX_TO_CHAR_ARRAY_CHECKED)
          </text>
          <rect class="highcharts-point" fill="#80699B" height="12" rx="6" ry="6" width="12" x="2"
            y="4"></rect>
        </g>
        <g
          class="highcharts-legend-item highcharts-column-series highcharts-color-4 highcharts-series-8"
          transform="translate(8,63)">
          <text style="color:#333333;font-size:12px;font-weight:bold;cursor:pointer;fill:#333333;" text-anchor="start"
            x="21"
            y="15">run(decodeType=JHEX_CHAR_AT_CHECKED)
          </text>
          <rect class="highcharts-point" fill="#3D96AE" height="12" rx="6" ry="6" width="12" x="2"
            y="4"></rect>
        </g>
        <g
          class="highcharts-legend-item highcharts-column-series highcharts-color-5 highcharts-series-10"
          transform="translate(8,78)">
          <text style="color:#333333;font-size:12px;font-weight:bold;cursor:pointer;fill:#333333;" text-anchor="start"
            x="21"
            y="15">run(decodeType=JHEX_CHAR_ITERATOR_CHECKED)
          </text>
          <rect class="highcharts-point" fill="#DB843D" height="12" rx="6" ry="6" width="12" x="2"
            y="4"></rect>
        </g>
        <g
          class="highcharts-legend-item highcharts-column-series highcharts-color-6 highcharts-series-12"
          transform="translate(8,93)">
          <text style="color:#333333;font-size:12px;font-weight:bold;cursor:pointer;fill:#333333;" text-anchor="start"
            x="21"
            y="15">run(decodeType=GUAVA)
          </text>
          <rect class="highcharts-point" fill="#92A8CD" height="12" rx="6" ry="6" width="12" x="2"
            y="4"></rect>
        </g>
        <g
          class="highcharts-legend-item highcharts-column-series highcharts-color-7 highcharts-series-14"
          transform="translate(8,108)">
          <text style="color:#333333;font-size:12px;font-weight:bold;cursor:pointer;fill:#333333;" text-anchor="start"
            x="21"
            y="15">run(decodeType=COMMONS_CODEC)
          </text>
          <rect class="highcharts-point" fill="#A47D7C" height="12" rx="6" ry="6" width="12" x="2"
            y="4"></rect>
        </g>
        <g
          class="highcharts-legend-item highcharts-column-series highcharts-color-8 highcharts-series-16"
          transform="translate(8,123)">
          <text style="color:#333333;font-size:12px;font-weight:bold;cursor:pointer;fill:#333333;" text-anchor="start"
            x="21"
            y="15">run(decodeType=JMX_DATATYPE_CONVERTER)
          </text>
          <rect class="highcharts-point" fill="#B5CA92" height="12" rx="6" ry="6" width="12" x="2"
            y="4"></rect>
        </g>
      </g>
    </g>
  </g>
  <g class="highcharts-axis-labels highcharts-xaxis-labels "></g>
  <g class="highcharts-axis-labels highcharts-yaxis-labels ">
    <text style="color:#666666;cursor:default;font-size:11px;fill:#666666;width:188px;text-overflow:clip;"
      opacity="1"
      text-anchor="end" transform="translate(0,0)" x="50" y="312">
      <tspan>0</tspan>
    </text>
    <text style="color:#666666;cursor:default;font-size:11px;fill:#666666;width:188px;text-overflow:clip;"
      opacity="1"
      text-anchor="end" transform="translate(0,0)" x="50" y="230">
      <tspan>2M</tspan>
    </text>
    <text style="color:#666666;cursor:default;font-size:11px;fill:#666666;width:188px;text-overflow:clip;"
      opacity="1"
      text-anchor="end" transform="translate(0,0)" x="50" y="148">
      <tspan>4M</tspan>
    </text>
    <text style="color:#666666;cursor:default;font-size:11px;fill:#666666;width:188px;text-overflow:clip;"
      opacity="1"
      text-anchor="end" transform="translate(0,0)" x="50" y="67">
      <tspan>6M</tspan>
    </text>
  </g>
  <g style="cursor:default;pointer-events:none;white-space:nowrap;" class="highcharts-label highcharts-tooltip"
    display="none" transform="translate(0,0)">
    <path class="highcharts-label-box highcharts-tooltip-box" d="M 3.5 0.5 L 13.5 0.5 C 16.5 0.5 16.5 0.5 16.5 3.5 L 16.5 13.5 C 16.5 16.5 16.5 16.5 13.5 16.5 L 3.5 16.5 C 0.5 16.5 0.5 16.5 0.5 13.5 L 0.5 3.5 C 0.5 0.5 0.5 0.5 3.5 0.5"
      fill="none"
      stroke="#000000" stroke-opacity="0.049999999999999996" stroke-width="5"
      transform="translate(1, 1)"></path>
    <path class="highcharts-label-box highcharts-tooltip-box" d="M 3.5 0.5 L 13.5 0.5 C 16.5 0.5 16.5 0.5 16.5 3.5 L 16.5 13.5 C 16.5 16.5 16.5 16.5 13.5 16.5 L 3.5 16.5 C 0.5 16.5 0.5 16.5 0.5 13.5 L 0.5 3.5 C 0.5 0.5 0.5 0.5 3.5 0.5"
      fill="none"
      stroke="#000000" stroke-opacity="0.09999999999999999" stroke-width="3"
      transform="translate(1, 1)"></path>
    <path class="highcharts-label-box highcharts-tooltip-box" d="M 3.5 0.5 L 13.5 0.5 C 16.5 0.5 16.5 0.5 16.5 3.5 L 16.5 13.5 C 16.5 16.5 16.5 16.5 13.5 16.5 L 3.5 16.5 C 0.5 16.5 0.5 16.5 0.5 13.5 L 0.5 3.5 C 0.5 0.5 0.5 0.5 3.5 0.5"
      fill="none"
      stroke="#000000" stroke-opacity="0.15" stroke-width="1" transform="translate(1, 1)"></path>
    <path class="highcharts-label-box highcharts-tooltip-box" d="M 3.5 0.5 L 13.5 0.5 C 16.5 0.5 16.5 0.5 16.5 3.5 L 16.5 13.5 C 16.5 16.5 16.5 16.5 13.5 16.5 L 3.5 16.5 C 0.5 16.5 0.5 16.5 0.5 13.5 L 0.5 3.5 C 0.5 0.5 0.5 0.5 3.5 0.5"
      fill="rgb(247,247,247)"
      fill-opacity="0.85"></path>
    <text style="font-size:12px;color:#333333;fill:#333333;" x="8" y="20"></text>
  </g>
</svg>