<?xml version="1.0" standalone="no"?><!DOCTYPE svg PUBLIC "-//W3C//DTD SVG 1.1//EN"
  "http://www.w3.org/Graphics/SVG/1.1/DTD/svg11.dtd">
<svg style="font-family:signika, serif;font-size:12px;" class="highcharts-root"
  height="490" version="1.1" viewBox="0 0 600 490"
  width="600" xmlns="http://www.w3.org/2000/svg">
  <desc>Created with Highcharts 5.0.0</desc>
  <defs>
    <clipPath id="highcharts-563">
      <rect fill="none" height="275" width="509" x="0" y="0"></rect>
    </clipPath>
  </defs>
  <rect class="highcharts-background" fill="#ffffff" height="490" rx="0" ry="0" width="600" x="0"
    y="0"></rect>
  <rect class="highcharts-plot-background" fill="none" height="275" width="509" x="81"
    y="62"></rect>
  <g class="highcharts-grid highcharts-xaxis-grid ">
    <path class="highcharts-grid-line" d="M 335.5 62 L 335.5 337" fill="none" opacity="1"></path>
  </g>
  <g class="highcharts-grid highcharts-yaxis-grid ">
    <path class="highcharts-grid-line" d="M 81 337.5 L 590 337.5" fill="none" opacity="1"
      stroke="#e6e6e6" stroke-width="1"></path>
    <path class="highcharts-grid-line" d="M 81 268.5 L 590 268.5" fill="none" opacity="1"
      stroke="#e6e6e6" stroke-width="1"></path>
    <path class="highcharts-grid-line" d="M 81 200.5 L 590 200.5" fill="none" opacity="1"
      stroke="#e6e6e6" stroke-width="1"></path>
    <path class="highcharts-grid-line" d="M 81 131.5 L 590 131.5" fill="none" opacity="1"
      stroke="#e6e6e6" stroke-width="1"></path>
    <path class="highcharts-grid-line" d="M 81 61.5 L 590 61.5" fill="none" opacity="1"
      stroke="#e6e6e6" stroke-width="1"></path>
  </g>
  <rect class="highcharts-plot-border" fill="none" height="275" width="509" x="81" y="62"></rect>
  <g class="highcharts-axis highcharts-xaxis ">
    <path class="highcharts-tick" d="M 335.5 337 L 335.5 347" fill="none" opacity="1"
      stroke="#ccd6eb" stroke-width="1"></path>
    <path class="highcharts-axis-line" d="M 81 337.5 L 590 337.5" fill="none" stroke="#ccd6eb"
      stroke-width="1"></path>
  </g>
  <g class="highcharts-axis highcharts-yaxis ">
    <text style="color:#666666;fill:#666666;" class="highcharts-axis-title" text-anchor="middle"
      transform="translate(0,0) rotate(270 24.75 199.5)" x="24.75" y="199.5">ops/s
    </text>
    <path class="highcharts-axis-line" d="M 81 62 L 81 337" fill="none"></path>
  </g>
  <g class="highcharts-series-group">
    <g class="highcharts-series highcharts-series-0 highcharts-column-series highcharts-color-0 "
      clip-path="url(#highcharts-563)" height="509" transform="translate(81,62) scale(1 1)"
      width="275">
      <rect class="highcharts-point highcharts-color-0" fill="#4572A7" height="187" stroke="#ffffff" stroke-width="1"
        width="59" x="6.5" y="88.5"></rect>
    </g>
    <g class="highcharts-markers highcharts-series-0 highcharts-column-series highcharts-color-0 "
      clip-path="none" height="509" transform="translate(81,62) scale(1 1)" width="275"></g>
    <g
      class="highcharts-series highcharts-series-1 highcharts-errorbar-series highcharts-color-undefined "
      clip-path="url(#highcharts-563)" height="509" transform="translate(81,62) scale(1 1)"
      width="275">
      <g class="highcharts-point">
        <path class="highcharts-boxplot-stem" d="M 36.5 93 L 36.5 82 M 36.5 93 L 36.5 93" fill="none" stroke="#000000"
          stroke-width="1"></path>
        <path class="highcharts-boxplot-whisker" d="M 21.5 82.5 L 51.5 82.5 M 21.5 93.5 L 51.5 93.5" fill="none" stroke="#000000"
          stroke-width="1"></path>
        <path class="highcharts-boxplot-median" d="M 0 0" fill="none" stroke="#000000"
          stroke-width="2"></path>
      </g>
    </g>
    <g
      class="highcharts-markers highcharts-series-1 highcharts-errorbar-series highcharts-color-undefined "
      clip-path="none" height="509" transform="translate(81,62) scale(1 1)" width="275"></g>
    <g class="highcharts-series highcharts-series-2 highcharts-column-series highcharts-color-1 "
      clip-path="url(#highcharts-563)" height="509" transform="translate(81,62) scale(1 1)"
      width="275">
      <rect class="highcharts-point highcharts-color-1" fill="#AA4643" height="248" stroke="#ffffff" stroke-width="1"
        width="59" x="79.5" y="27.5"></rect>
    </g>
    <g class="highcharts-markers highcharts-series-2 highcharts-column-series highcharts-color-1 "
      clip-path="none" height="509" transform="translate(81,62) scale(1 1)" width="275"></g>
    <g
      class="highcharts-series highcharts-series-3 highcharts-errorbar-series highcharts-color-undefined "
      clip-path="url(#highcharts-563)" height="509" transform="translate(81,62) scale(1 1)"
      width="275">
      <g class="highcharts-point">
        <path class="highcharts-boxplot-stem" d="M 109.5 37 L 109.5 16 M 109.5 37 L 109.5 37" fill="none" stroke="#000000"
          stroke-width="1"></path>
        <path class="highcharts-boxplot-whisker" d="M 94.5 16.5 L 124.5 16.5 M 94.5 37.5 L 124.5 37.5" fill="none" stroke="#000000"
          stroke-width="1"></path>
        <path class="highcharts-boxplot-median" d="M 0 0" fill="none" stroke="#000000"
          stroke-width="2"></path>
      </g>
    </g>
    <g
      class="highcharts-markers highcharts-series-3 highcharts-errorbar-series highcharts-color-undefined "
      clip-path="none" height="509" transform="translate(81,62) scale(1 1)" width="275"></g>
    <g class="highcharts-series highcharts-series-4 highcharts-column-series highcharts-color-2 "
      clip-path="url(#highcharts-563)" height="509" transform="translate(81,62) scale(1 1)"
      width="275">
      <rect class="highcharts-point highcharts-color-2" fill="#89A54E" height="181" stroke="#ffffff" stroke-width="1"
        width="59" x="152.5" y="94.5"></rect>
    </g>
    <g class="highcharts-markers highcharts-series-4 highcharts-column-series highcharts-color-2 "
      clip-path="none" height="509" transform="translate(81,62) scale(1 1)" width="275"></g>
    <g
      class="highcharts-series highcharts-series-5 highcharts-errorbar-series highcharts-color-undefined "
      clip-path="url(#highcharts-563)" height="509" transform="translate(81,62) scale(1 1)"
      width="275">
      <g class="highcharts-point">
        <path class="highcharts-boxplot-stem" d="M 182.5 100 L 182.5 87 M 182.5 100 L 182.5 100" fill="none" stroke="#000000"
          stroke-width="1"></path>
        <path class="highcharts-boxplot-whisker" d="M 167.5 87.5 L 197.5 87.5 M 167.5 100.5 L 197.5 100.5" fill="none" stroke="#000000"
          stroke-width="1"></path>
        <path class="highcharts-boxplot-median" d="M 0 0" fill="none" stroke="#000000"
          stroke-width="2"></path>
      </g>
    </g>
    <g
      class="highcharts-markers highcharts-series-5 highcharts-errorbar-series highcharts-color-undefined "
      clip-path="none" height="509" transform="translate(81,62) scale(1 1)" width="275"></g>
    <g class="highcharts-series highcharts-series-6 highcharts-column-series highcharts-color-3 "
      clip-path="url(#highcharts-563)" height="509" transform="translate(81,62) scale(1 1)"
      width="275">
      <rect class="highcharts-point highcharts-color-3" fill="#80699B" height="244" stroke="#ffffff" stroke-width="1"
        width="59" x="224.5" y="31.5"></rect>
    </g>
    <g class="highcharts-markers highcharts-series-6 highcharts-column-series highcharts-color-3 "
      clip-path="none" height="509" transform="translate(81,62) scale(1 1)" width="275"></g>
    <g
      class="highcharts-series highcharts-series-7 highcharts-errorbar-series highcharts-color-undefined "
      clip-path="url(#highcharts-563)" height="509" transform="translate(81,62) scale(1 1)"
      width="275">
      <g class="highcharts-point">
        <path class="highcharts-boxplot-stem" d="M 254.5 48 L 254.5 13 M 254.5 48 L 254.5 48" fill="none" stroke="#000000"
          stroke-width="1"></path>
        <path class="highcharts-boxplot-whisker" d="M 239.5 13.5 L 269.5 13.5 M 239.5 48.5 L 269.5 48.5" fill="none" stroke="#000000"
          stroke-width="1"></path>
        <path class="highcharts-boxplot-median" d="M 0 0" fill="none" stroke="#000000"
          stroke-width="2"></path>
      </g>
    </g>
    <g
      class="highcharts-markers highcharts-series-7 highcharts-errorbar-series highcharts-color-undefined "
      clip-path="none" height="509" transform="translate(81,62) scale(1 1)" width="275"></g>
    <g class="highcharts-series highcharts-series-8 highcharts-column-series highcharts-color-4 "
      clip-path="url(#highcharts-563)" height="509" transform="translate(81,62) scale(1 1)"
      width="275">
      <rect class="highcharts-point highcharts-color-4" fill="#3D96AE" height="217" stroke="#ffffff" stroke-width="1"
        width="59" x="297.5" y="58.5"></rect>
    </g>
    <g class="highcharts-markers highcharts-series-8 highcharts-column-series highcharts-color-4 "
      clip-path="none" height="509" transform="translate(81,62) scale(1 1)" width="275"></g>
    <g
      class="highcharts-series highcharts-series-9 highcharts-errorbar-series highcharts-color-undefined "
      clip-path="url(#highcharts-563)" height="509" transform="translate(81,62) scale(1 1)"
      width="275">
      <g class="highcharts-point">
        <path class="highcharts-boxplot-stem" d="M 327.5 69 L 327.5 45 M 327.5 69 L 327.5 69" fill="none" stroke="#000000"
          stroke-width="1"></path>
        <path class="highcharts-boxplot-whisker" d="M 312.5 45.5 L 342.5 45.5 M 312.5 69.5 L 342.5 69.5" fill="none" stroke="#000000"
          stroke-width="1"></path>
        <path class="highcharts-boxplot-median" d="M 0 0" fill="none" stroke="#000000"
          stroke-width="2"></path>
      </g>
    </g>
    <g
      class="highcharts-markers highcharts-series-9 highcharts-errorbar-series highcharts-color-undefined "
      clip-path="none" height="509" transform="translate(81,62) scale(1 1)" width="275"></g>
    <g class="highcharts-series highcharts-series-10 highcharts-column-series highcharts-color-5 "
      clip-path="url(#highcharts-563)" height="509" transform="translate(81,62) scale(1 1)"
      width="275">
      <rect class="highcharts-point highcharts-color-5" fill="#DB843D" height="90" stroke="#ffffff" stroke-width="1"
        width="59" x="370.5" y="185.5"></rect>
    </g>
    <g class="highcharts-markers highcharts-series-10 highcharts-column-series highcharts-color-5 "
      clip-path="none" height="509" transform="translate(81,62) scale(1 1)" width="275"></g>
    <g
      class="highcharts-series highcharts-series-11 highcharts-errorbar-series highcharts-color-undefined "
      clip-path="url(#highcharts-563)" height="509" transform="translate(81,62) scale(1 1)"
      width="275">
      <g class="highcharts-point">
        <path class="highcharts-boxplot-stem" d="M 400.5 189 L 400.5 180 M 400.5 189 L 400.5 189" fill="none" stroke="#000000"
          stroke-width="1"></path>
        <path class="highcharts-boxplot-whisker" d="M 385.5 180.5 L 415.5 180.5 M 385.5 189.5 L 415.5 189.5" fill="none" stroke="#000000"
          stroke-width="1"></path>
        <path class="highcharts-boxplot-median" d="M 0 0" fill="none" stroke="#000000"
          stroke-width="2"></path>
      </g>
    </g>
    <g
      class="highcharts-markers highcharts-series-11 highcharts-errorbar-series highcharts-color-undefined "
      clip-path="none" height="509" transform="translate(81,62) scale(1 1)" width="275"></g>
    <g class="highcharts-series highcharts-series-12 highcharts-column-series highcharts-color-6 "
      clip-path="url(#highcharts-563)" height="509" transform="translate(81,62) scale(1 1)"
      width="275">
      <rect class="highcharts-point highcharts-color-6" fill="#92A8CD" height="137" stroke="#ffffff" stroke-width="1"
        width="59" x="443.5" y="138.5"></rect>
    </g>
    <g class="highcharts-markers highcharts-series-12 highcharts-column-series highcharts-color-6 "
      clip-path="none" height="509" transform="translate(81,62) scale(1 1)" width="275"></g>
    <g
      class="highcharts-series highcharts-series-13 highcharts-errorbar-series highcharts-color-undefined "
      clip-path="url(#highcharts-563)" height="509" transform="translate(81,62) scale(1 1)"
      width="275">
      <g class="highcharts-point">
        <path class="highcharts-boxplot-stem" d="M 473.5 142 L 473.5 133 M 473.5 142 L 473.5 142" fill="none" stroke="#000000"
          stroke-width="1"></path>
        <path class="highcharts-boxplot-whisker" d="M 458.5 133.5 L 488.5 133.5 M 458.5 142.5 L 488.5 142.5" fill="none" stroke="#000000"
          stroke-width="1"></path>
        <path class="highcharts-boxplot-median" d="M 0 0" fill="none" stroke="#000000"
          stroke-width="2"></path>
      </g>
    </g>
    <g
      class="highcharts-markers highcharts-series-13 highcharts-errorbar-series highcharts-color-undefined "
      clip-path="none" height="509" transform="translate(81,62) scale(1 1)" width="275"></g>
  </g>
  <text style="color:#333333;font-size:18px;fill:#333333;width:536px;" class="highcharts-title" text-anchor="middle"
    x="300" y="24">
    <tspan>Throughput scores (ops/s)</tspan>
  </text>
  <text style="color:#666666;fill:#666666;width:536px;" class="highcharts-subtitle" text-anchor="middle"
    x="300" y="46">
    <tspan>c.f.e.EncodeBenchmark</tspan>
  </text>
  <g class="highcharts-legend" transform="translate(155,359)">
    <rect class="highcharts-legend-box" fill="none" height="116" rx="0" ry="0" visibility="visible" width="289"
      x="0" y="0"></rect>
    <g>
      <g>
        <g
          class="highcharts-legend-item highcharts-column-series highcharts-color-0 highcharts-series-0"
          transform="translate(8,3)">
          <text style="color:#333333;font-size:12px;font-weight:bold;cursor:pointer;fill:#333333;"
            text-anchor="start"
            x="21" y="15">run(encodeType=JHEX_BYTE_STR_CTOR)
          </text>
          <rect class="highcharts-point" fill="#4572A7" height="12" rx="6" ry="6" width="12" x="2"
            y="4"></rect>
        </g>
        <g
          class="highcharts-legend-item highcharts-column-series highcharts-color-1 highcharts-series-2"
          transform="translate(8,18)">
          <text style="color:#333333;font-size:12px;font-weight:bold;cursor:pointer;fill:#333333;" text-anchor="start"
            x="21"
            y="15">run(encodeType=JHEX_UPPER)
          </text>
          <rect class="highcharts-point" fill="#AA4643" height="12" rx="6" ry="6" width="12" x="2"
            y="4"></rect>
        </g>
        <g
          class="highcharts-legend-item highcharts-column-series highcharts-color-2 highcharts-series-4"
          transform="translate(8,33)">
          <text style="color:#333333;font-size:12px;font-weight:bold;cursor:pointer;fill:#333333;" text-anchor="start"
            x="21"
            y="15">run(encodeType=JHEX_REVERSE)
          </text>
          <rect class="highcharts-point" fill="#89A54E" height="12" rx="6" ry="6" width="12" x="2"
            y="4"></rect>
        </g>
        <g
          class="highcharts-legend-item highcharts-column-series highcharts-color-3 highcharts-series-6"
          transform="translate(8,48)">
          <text style="color:#333333;font-size:12px;font-weight:bold;cursor:pointer;fill:#333333;" text-anchor="start"
            x="21"
            y="15">run(encodeType=JHEX)
          </text>
          <rect class="highcharts-point" fill="#80699B" height="12" rx="6" ry="6" width="12" x="2"
            y="4"></rect>
        </g>
        <g
          class="highcharts-legend-item highcharts-column-series highcharts-color-4 highcharts-series-8"
          transform="translate(8,63)">
          <text style="color:#333333;font-size:12px;font-weight:bold;cursor:pointer;fill:#333333;" text-anchor="start"
            x="21"
            y="15">run(encodeType=COMMONS_CODEC)
          </text>
          <rect class="highcharts-point" fill="#3D96AE" height="12" rx="6" ry="6" width="12" x="2"
            y="4"></rect>
        </g>
        <g
          class="highcharts-legend-item highcharts-column-series highcharts-color-5 highcharts-series-10"
          transform="translate(8,78)">
          <text style="color:#333333;font-size:12px;font-weight:bold;cursor:pointer;fill:#333333;" text-anchor="start"
            x="21"
            y="15">run(encodeType=GUAVA)
          </text>
          <rect class="highcharts-point" fill="#DB843D" height="12" rx="6" ry="6" width="12" x="2"
            y="4"></rect>
        </g>
        <g
          class="highcharts-legend-item highcharts-column-series highcharts-color-6 highcharts-series-12"
          transform="translate(8,93)">
          <text style="color:#333333;font-size:12px;font-weight:bold;cursor:pointer;fill:#333333;" text-anchor="start"
            x="21"
            y="15">run(encodeType=JMX_DATATYPE_CONVERTER)
          </text>
          <rect class="highcharts-point" fill="#92A8CD" height="12" rx="6" ry="6" width="12" x="2"
            y="4"></rect>
        </g>
      </g>
    </g>
  </g>
  <g class="highcharts-axis-labels highcharts-xaxis-labels "></g>
  <g class="highcharts-axis-labels highcharts-yaxis-labels ">
    <text style="color:#666666;cursor:default;font-size:11px;fill:#666666;width:188px;text-overflow:clip;"
      opacity="1"
      text-anchor="end" transform="translate(0,0)" x="66" y="342">
      <tspan>0</tspan>
    </text>
    <text style="color:#666666;cursor:default;font-size:11px;fill:#666666;width:188px;text-overflow:clip;"
      opacity="1"
      text-anchor="end" transform="translate(0,0)" x="66" y="273">
      <tspan>250k</tspan>
    </text>
    <text style="color:#666666;cursor:default;font-size:11px;fill:#666666;width:188px;text-overflow:clip;"
      opacity="1"
      text-anchor="end" transform="translate(0,0)" x="66" y="204">
      <tspan>500k</tspan>
    </text>
    <text style="color:#666666;cursor:default;font-size:11px;fill:#666666;width:188px;text-overflow:clip;"
      opacity="1"
      text-anchor="end" transform="translate(0,0)" x="66" y="135">
      <tspan>750k</tspan>
    </text>
    <text style="color:#666666;cursor:default;font-size:11px;fill:#666666;width:188px;text-overflow:clip;"
      opacity="1"
      text-anchor="end" transform="translate(0,0)" x="66" y="67">
      <tspan>1 000k</tspan>
    </text>
  </g>
  <g style="cursor:default;pointer-events:none;white-space:nowrap;" class="highcharts-label highcharts-tooltip"
    display="none" transform="translate(0,0)">
    <path class="highcharts-label-box highcharts-tooltip-box" d="M 3.5 0.5 L 13.5 0.5 C 16.5 0.5 16.5 0.5 16.5 3.5 L 16.5 13.5 C 16.5 16.5 16.5 16.5 13.5 16.5 L 3.5 16.5 C 0.5 16.5 0.5 16.5 0.5 13.5 L 0.5 3.5 C 0.5 0.5 0.5 0.5 3.5 0.5"
      fill="none"
      stroke="#000000" stroke-opacity="0.049999999999999996" stroke-width="5"
      transform="translate(1, 1)"></path>
    <path class="highcharts-label-box highcharts-tooltip-box" d="M 3.5 0.5 L 13.5 0.5 C 16.5 0.5 16.5 0.5 16.5 3.5 L 16.5 13.5 C 16.5 16.5 16.5 16.5 13.5 16.5 L 3.5 16.5 C 0.5 16.5 0.5 16.5 0.5 13.5 L 0.5 3.5 C 0.5 0.5 0.5 0.5 3.5 0.5"
      fill="none"
      stroke="#000000" stroke-opacity="0.09999999999999999" stroke-width="3"
      transform="translate(1, 1)"></path>
    <path class="highcharts-label-box highcharts-tooltip-box" d="M 3.5 0.5 L 13.5 0.5 C 16.5 0.5 16.5 0.5 16.5 3.5 L 16.5 13.5 C 16.5 16.5 16.5 16.5 13.5 16.5 L 3.5 16.5 C 0.5 16.5 0.5 16.5 0.5 13.5 L 0.5 3.5 C 0.5 0.5 0.5 0.5 3.5 0.5"
      fill="none"
      stroke="#000000" stroke-opacity="0.15" stroke-width="1" transform="translate(1, 1)"></path>
    <path class="highcharts-label-box highcharts-tooltip-box" d="M 3.5 0.5 L 13.5 0.5 C 16.5 0.5 16.5 0.5 16.5 3.5 L 16.5 13.5 C 16.5 16.5 16.5 16.5 13.5 16.5 L 3.5 16.5 C 0.5 16.5 0.5 16.5 0.5 13.5 L 0.5 3.5 C 0.5 0.5 0.5 0.5 3.5 0.5"
      fill="rgb(247,247,247)"
      fill-opacity="0.85"></path>
    <text style="font-size:12px;color:#333333;fill:#333333;" x="8" y="20"></text>
  </g>
</svg>