<?xml version="1.0" standalone="no"?><!DOCTYPE svg PUBLIC "-//W3C//DTD SVG 1.1//EN" "http://www.w3.org/Graphics/SVG/1.1/DTD/svg11.dtd"><svg xmlns:xlink="http://www.w3.org/1999/xlink" version="1.1" class="highcharts-root" style="font-family:signika, serif;font-size:12px;" xmlns="http://www.w3.org/2000/svg" width="600" viewBox="0 0 600 490" height="490"><desc>Created with Highcharts 5.0.0</desc><defs><clipPath id="highcharts-487"><rect x="0" y="0" width="525" height="275" fill="none"></rect></clipPath></defs><rect fill="#ffffff" class="highcharts-background" x="0" y="0" width="600" height="490" rx="0" ry="0"></rect><rect fill="none" class="highcharts-plot-background" x="65" y="62" width="525" height="275"></rect><g class="highcharts-grid highcharts-xaxis-grid "><path fill="none" class="highcharts-grid-line" d="M 327.5 62 L 327.5 337" opacity="1"></path></g><g class="highcharts-grid highcharts-yaxis-grid "><path fill="none" stroke="#e6e6e6" stroke-width="1" class="highcharts-grid-line" d="M 65 337.5 L 590 337.5" opacity="1"></path><path fill="none" stroke="#e6e6e6" stroke-width="1" class="highcharts-grid-line" d="M 65 245.5 L 590 245.5" opacity="1"></path><path fill="none" stroke="#e6e6e6" stroke-width="1" class="highcharts-grid-line" d="M 65 154.5 L 590 154.5" opacity="1"></path><path fill="none" stroke="#e6e6e6" stroke-width="1" class="highcharts-grid-line" d="M 65 61.5 L 590 61.5" opacity="1"></path></g><rect fill="none" class="highcharts-plot-border" x="65" y="62" width="525" height="275"></rect><g class="highcharts-axis highcharts-xaxis "><path fill="none" class="highcharts-tick" stroke="#ccd6eb" stroke-width="1" d="M 327.5 337 L 327.5 347" opacity="1"></path><path fill="none" class="highcharts-axis-line" stroke="#ccd6eb" stroke-width="1" d="M 65 337.5 L 590 337.5"></path></g><g class="highcharts-axis highcharts-yaxis "><text x="25.296875" text-anchor="middle" transform="translate(0,0) rotate(270 25.296875 199.5)" class="highcharts-axis-title" style="color:#666666;fill:#666666;" y="199.5">ops/s</text><path fill="none" class="highcharts-axis-line" d="M 65 62 L 65 337"></path></g><g class="highcharts-series-group"><g class="highcharts-series highcharts-series-0 highcharts-column-series highcharts-color-0 " transform="translate(65,62) scale(1 1)" width="275" height="525" clip-path="url(#highcharts-487)"><rect x="7.5" y="20.5" width="60" height="255" fill="#4572A7" class="highcharts-point highcharts-color-0" stroke="#ffffff" stroke-width="1"></rect></g><g class="highcharts-markers highcharts-series-0 highcharts-column-series highcharts-color-0 " transform="translate(65,62) scale(1 1)" width="275" height="525" clip-path="none"></g><g class="highcharts-series highcharts-series-1 highcharts-errorbar-series highcharts-color-undefined " transform="translate(65,62) scale(1 1)" width="275" height="525" clip-path="url(#highcharts-487)"><g class="highcharts-point"><path fill="none" class="highcharts-boxplot-stem" stroke="#000000" stroke-width="1" d="M 37.5 23 L 37.5 17 M 37.5 23 L 37.5 23"></path><path fill="none" class="highcharts-boxplot-whisker" stroke="#000000" stroke-width="1" d="M 22.5 17.5 L 52.5 17.5 M 22.5 23.5 L 52.5 23.5"></path><path fill="none" class="highcharts-boxplot-median" stroke="#000000" stroke-width="2" d="M 0 0"></path></g></g><g class="highcharts-markers highcharts-series-1 highcharts-errorbar-series highcharts-color-undefined " transform="translate(65,62) scale(1 1)" width="275" height="525" clip-path="none"></g><g class="highcharts-series highcharts-series-2 highcharts-column-series highcharts-color-1 " transform="translate(65,62) scale(1 1)" width="275" height="525" clip-path="url(#highcharts-487)"><rect x="82.5" y="36.5" width="60" height="239" fill="#AA4643" class="highcharts-point highcharts-color-1" stroke="#ffffff" stroke-width="1"></rect></g><g class="highcharts-markers highcharts-series-2 highcharts-column-series highcharts-color-1 " transform="translate(65,62) scale(1 1)" width="275" height="525" clip-path="none"></g><g class="highcharts-series highcharts-series-3 highcharts-errorbar-series highcharts-color-undefined " transform="translate(65,62) scale(1 1)" width="275" height="525" clip-path="url(#highcharts-487)"><g class="highcharts-point"><path fill="none" class="highcharts-boxplot-stem" stroke="#000000" stroke-width="1" d="M 112.5 38 L 112.5 32 M 112.5 38 L 112.5 38"></path><path fill="none" class="highcharts-boxplot-whisker" stroke="#000000" stroke-width="1" d="M 97.5 32.5 L 127.5 32.5 M 97.5 38.5 L 127.5 38.5"></path><path fill="none" class="highcharts-boxplot-median" stroke="#000000" stroke-width="2" d="M 0 0"></path></g></g><g class="highcharts-markers highcharts-series-3 highcharts-errorbar-series highcharts-color-undefined " transform="translate(65,62) scale(1 1)" width="275" height="525" clip-path="none"></g><g class="highcharts-series highcharts-series-4 highcharts-column-series highcharts-color-2 " transform="translate(65,62) scale(1 1)" width="275" height="525" clip-path="url(#highcharts-487)"><rect x="157.5" y="60.5" width="60" height="215" fill="#89A54E" class="highcharts-point highcharts-color-2" stroke="#ffffff" stroke-width="1"></rect></g><g class="highcharts-markers highcharts-series-4 highcharts-column-series highcharts-color-2 " transform="translate(65,62) scale(1 1)" width="275" height="525" clip-path="none"></g><g class="highcharts-series highcharts-series-5 highcharts-errorbar-series highcharts-color-undefined " transform="translate(65,62) scale(1 1)" width="275" height="525" clip-path="url(#highcharts-487)"><g class="highcharts-point"><path fill="none" class="highcharts-boxplot-stem" stroke="#000000" stroke-width="1" d="M 187.5 61 L 187.5 57 M 187.5 61 L 187.5 61"></path><path fill="none" class="highcharts-boxplot-whisker" stroke="#000000" stroke-width="1" d="M 172.5 57.5 L 202.5 57.5 M 172.5 61.5 L 202.5 61.5"></path><path fill="none" class="highcharts-boxplot-median" stroke="#000000" stroke-width="2" d="M 0 0"></path></g></g><g class="highcharts-markers highcharts-series-5 highcharts-errorbar-series highcharts-color-undefined " transform="translate(65,62) scale(1 1)" width="275" height="525" clip-path="none"></g><g class="highcharts-series highcharts-series-6 highcharts-column-series highcharts-color-3 " transform="translate(65,62) scale(1 1)" width="275" height="525" clip-path="url(#highcharts-487)"><rect x="232.5" y="35.5" width="60" height="240" fill="#80699B" class="highcharts-point highcharts-color-3" stroke="#ffffff" stroke-width="1"></rect></g><g class="highcharts-markers highcharts-series-6 highcharts-column-series highcharts-color-3 " transform="translate(65,62) scale(1 1)" width="275" height="525" clip-path="none"></g><g class="highcharts-series highcharts-series-7 highcharts-errorbar-series highcharts-color-undefined " transform="translate(65,62) scale(1 1)" width="275" height="525" clip-path="url(#highcharts-487)"><g class="highcharts-point"><path fill="none" class="highcharts-boxplot-stem" stroke="#000000" stroke-width="1" d="M 262.5 39 L 262.5 30 M 262.5 39 L 262.5 39"></path><path fill="none" class="highcharts-boxplot-whisker" stroke="#000000" stroke-width="1" d="M 247.5 30.5 L 277.5 30.5 M 247.5 39.5 L 277.5 39.5"></path><path fill="none" class="highcharts-boxplot-median" stroke="#000000" stroke-width="2" d="M 0 0"></path></g></g><g class="highcharts-markers highcharts-series-7 highcharts-errorbar-series highcharts-color-undefined " transform="translate(65,62) scale(1 1)" width="275" height="525" clip-path="none"></g><g class="highcharts-series highcharts-series-8 highcharts-column-series highcharts-color-4 " transform="translate(65,62) scale(1 1)" width="275" height="525" clip-path="url(#highcharts-487)"><rect x="307.5" y="42.5" width="60" height="233" fill="#3D96AE" class="highcharts-point highcharts-color-4" stroke="#ffffff" stroke-width="1"></rect></g><g class="highcharts-markers highcharts-series-8 highcharts-column-series highcharts-color-4 " transform="translate(65,62) scale(1 1)" width="275" height="525" clip-path="none"></g><g class="highcharts-series highcharts-series-9 highcharts-errorbar-series highcharts-color-undefined " transform="translate(65,62) scale(1 1)" width="275" height="525" clip-path="url(#highcharts-487)"><g class="highcharts-point"><path fill="none" class="highcharts-boxplot-stem" stroke="#000000" stroke-width="1" d="M 337.5 44 L 337.5 38 M 337.5 44 L 337.5 44"></path><path fill="none" class="highcharts-boxplot-whisker" stroke="#000000" stroke-width="1" d="M 322.5 38.5 L 352.5 38.5 M 322.5 44.5 L 352.5 44.5"></path><path fill="none" class="highcharts-boxplot-median" stroke="#000000" stroke-width="2" d="M 0 0"></path></g></g><g class="highcharts-markers highcharts-series-9 highcharts-errorbar-series highcharts-color-undefined " transform="translate(65,62) scale(1 1)" width="275" height="525" clip-path="none"></g><g class="highcharts-series highcharts-series-10 highcharts-column-series highcharts-color-5 " transform="translate(65,62) scale(1 1)" width="275" height="525" clip-path="url(#highcharts-487)"><rect x="382.5" y="92.5" width="60" height="183" fill="#DB843D" class="highcharts-point highcharts-color-5" stroke="#ffffff" stroke-width="1"></rect></g><g class="highcharts-markers highcharts-series-10 highcharts-column-series highcharts-color-5 " transform="translate(65,62) scale(1 1)" width="275" height="525" clip-path="none"></g><g class="highcharts-series highcharts-series-11 highcharts-errorbar-series highcharts-color-undefined " transform="translate(65,62) scale(1 1)" width="275" height="525" clip-path="url(#highcharts-487)"><g class="highcharts-point"><path fill="none" class="highcharts-boxplot-stem" stroke="#000000" stroke-width="1" d="M 412.5 96 L 412.5 86 M 412.5 96 L 412.5 96"></path><path fill="none" class="highcharts-boxplot-whisker" stroke="#000000" stroke-width="1" d="M 397.5 86.5 L 427.5 86.5 M 397.5 96.5 L 427.5 96.5"></path><path fill="none" class="highcharts-boxplot-median" stroke="#000000" stroke-width="2" d="M 0 0"></path></g></g><g class="highcharts-markers highcharts-series-11 highcharts-errorbar-series highcharts-color-undefined " transform="translate(65,62) scale(1 1)" width="275" height="525" clip-path="none"></g><g class="highcharts-series highcharts-series-12 highcharts-column-series highcharts-color-6 " transform="translate(65,62) scale(1 1)" width="275" height="525" clip-path="url(#highcharts-487)"><rect x="457.5" y="63.5" width="60" height="212" fill="#92A8CD" class="highcharts-point highcharts-color-6" stroke="#ffffff" stroke-width="1"></rect></g><g class="highcharts-markers highcharts-series-12 highcharts-column-series highcharts-color-6 " transform="translate(65,62) scale(1 1)" width="275" height="525" clip-path="none"></g><g class="highcharts-series highcharts-series-13 highcharts-errorbar-series highcharts-color-undefined " transform="translate(65,62) scale(1 1)" width="275" height="525" clip-path="url(#highcharts-487)"><g class="highcharts-point"><path fill="none" class="highcharts-boxplot-stem" stroke="#000000" stroke-width="1" d="M 487.5 74 L 487.5 51 M 487.5 74 L 487.5 74"></path><path fill="none" class="highcharts-boxplot-whisker" stroke="#000000" stroke-width="1" d="M 472.5 51.5 L 502.5 51.5 M 472.5 74.5 L 502.5 74.5"></path><path fill="none" class="highcharts-boxplot-median" stroke="#000000" stroke-width="2" d="M 0 0"></path></g></g><g class="highcharts-markers highcharts-series-13 highcharts-errorbar-series highcharts-color-undefined " transform="translate(65,62) scale(1 1)" width="275" height="525" clip-path="none"></g></g><text x="300" text-anchor="middle" class="highcharts-title" style="color:#333333;font-size:18px;fill:#333333;width:536px;" y="24"><tspan>Throughput scores (ops/s)</tspan></text><text x="300" text-anchor="middle" class="highcharts-subtitle" style="color:#666666;fill:#666666;width:536px;" y="46"><tspan>c.f.e.EncodeBenchmark</tspan></text><g class="highcharts-legend" transform="translate(155,359)"><rect fill="none" class="highcharts-legend-box" rx="0" ry="0" x="0" y="0" width="289" height="116" visibility="visible"></rect><g><g><g class="highcharts-legend-item highcharts-column-series highcharts-color-0 highcharts-series-0" transform="translate(8,3)"><text x="21" style="color:#333333;font-size:12px;font-weight:bold;cursor:pointer;fill:#333333;" text-anchor="start" y="15">run(encodeType=JHEX_BYTE_STR_CTOR)</text><rect x="2" y="4" width="12" height="12" fill="#4572A7" rx="6" ry="6" class="highcharts-point"></rect></g><g class="highcharts-legend-item highcharts-column-series highcharts-color-1 highcharts-series-2" transform="translate(8,18)"><text x="21" y="15" style="color:#333333;font-size:12px;font-weight:bold;cursor:pointer;fill:#333333;" text-anchor="start">run(encodeType=JHEX_UPPER)</text><rect x="2" y="4" width="12" height="12" fill="#AA4643" rx="6" ry="6" class="highcharts-point"></rect></g><g class="highcharts-legend-item highcharts-column-series highcharts-color-2 highcharts-series-4" transform="translate(8,33)"><text x="21" y="15" style="color:#333333;font-size:12px;font-weight:bold;cursor:pointer;fill:#333333;" text-anchor="start">run(encodeType=JHEX_REVERSE)</text><rect x="2" y="4" width="12" height="12" fill="#89A54E" rx="6" ry="6" class="highcharts-point"></rect></g><g class="highcharts-legend-item highcharts-column-series highcharts-color-3 highcharts-series-6" transform="translate(8,48)"><text x="21" y="15" style="color:#333333;font-size:12px;font-weight:bold;cursor:pointer;fill:#333333;" text-anchor="start">run(encodeType=JHEX)</text><rect x="2" y="4" width="12" height="12" fill="#80699B" rx="6" ry="6" class="highcharts-point"></rect></g><g class="highcharts-legend-item highcharts-column-series highcharts-color-4 highcharts-series-8" transform="translate(8,63)"><text x="21" y="15" style="color:#333333;font-size:12px;font-weight:bold;cursor:pointer;fill:#333333;" text-anchor="start">run(encodeType=COMMONS_CODEC)</text><rect x="2" y="4" width="12" height="12" fill="#3D96AE" rx="6" ry="6" class="highcharts-point"></rect></g><g class="highcharts-legend-item highcharts-column-series highcharts-color-5 highcharts-series-10" transform="translate(8,78)"><text x="21" y="15" style="color:#333333;font-size:12px;font-weight:bold;cursor:pointer;fill:#333333;" text-anchor="start">run(encodeType=GUAVA)</text><rect x="2" y="4" width="12" height="12" fill="#DB843D" rx="6" ry="6" class="highcharts-point"></rect></g><g class="highcharts-legend-item highcharts-column-series highcharts-color-6 highcharts-series-12" transform="translate(8,93)"><text x="21" y="15" style="color:#333333;font-size:12px;font-weight:bold;cursor:pointer;fill:#333333;" text-anchor="start">run(encodeType=JMX_DATATYPE_CONVERTER)</text><rect x="2" y="4" width="12" height="12" fill="#92A8CD" rx="6" ry="6" class="highcharts-point"></rect></g></g></g></g><g class="highcharts-axis-labels highcharts-xaxis-labels "></g><g class="highcharts-axis-labels highcharts-yaxis-labels "><text x="50" style="color:#666666;cursor:default;font-size:11px;fill:#666666;width:188px;text-overflow:clip;" text-anchor="end" transform="translate(0,0)" y="342" opacity="1"><tspan>0</tspan></text><text x="50" style="color:#666666;cursor:default;font-size:11px;fill:#666666;width:188px;text-overflow:clip;" text-anchor="end" transform="translate(0,0)" y="250" opacity="1"><tspan>2M</tspan></text><text x="50" style="color:#666666;cursor:default;font-size:11px;fill:#666666;width:188px;text-overflow:clip;" text-anchor="end" transform="translate(0,0)" y="158" opacity="1"><tspan>4M</tspan></text><text x="50" style="color:#666666;cursor:default;font-size:11px;fill:#666666;width:188px;text-overflow:clip;" text-anchor="end" transform="translate(0,0)" y="67" opacity="1"><tspan>6M</tspan></text></g><g class="highcharts-label highcharts-tooltip" display="none" style="cursor:default;pointer-events:none;white-space:nowrap;" transform="translate(0,0)"><path fill="none" class="highcharts-label-box highcharts-tooltip-box" d="M 3.5 0.5 L 13.5 0.5 C 16.5 0.5 16.5 0.5 16.5 3.5 L 16.5 13.5 C 16.5 16.5 16.5 16.5 13.5 16.5 L 3.5 16.5 C 0.5 16.5 0.5 16.5 0.5 13.5 L 0.5 3.5 C 0.5 0.5 0.5 0.5 3.5 0.5"  stroke="#000000" stroke-opacity="0.049999999999999996" stroke-width="5" transform="translate(1, 1)"></path><path fill="none" class="highcharts-label-box highcharts-tooltip-box" d="M 3.5 0.5 L 13.5 0.5 C 16.5 0.5 16.5 0.5 16.5 3.5 L 16.5 13.5 C 16.5 16.5 16.5 16.5 13.5 16.5 L 3.5 16.5 C 0.5 16.5 0.5 16.5 0.5 13.5 L 0.5 3.5 C 0.5 0.5 0.5 0.5 3.5 0.5"  stroke="#000000" stroke-opacity="0.09999999999999999" stroke-width="3" transform="translate(1, 1)"></path><path fill="none" class="highcharts-label-box highcharts-tooltip-box" d="M 3.5 0.5 L 13.5 0.5 C 16.5 0.5 16.5 0.5 16.5 3.5 L 16.5 13.5 C 16.5 16.5 16.5 16.5 13.5 16.5 L 3.5 16.5 C 0.5 16.5 0.5 16.5 0.5 13.5 L 0.5 3.5 C 0.5 0.5 0.5 0.5 3.5 0.5"  stroke="#000000" stroke-opacity="0.15" stroke-width="1" transform="translate(1, 1)"></path><path fill="rgb(247,247,247)" fill-opacity="0.85" class="highcharts-label-box highcharts-tooltip-box" d="M 3.5 0.5 L 13.5 0.5 C 16.5 0.5 16.5 0.5 16.5 3.5 L 16.5 13.5 C 16.5 16.5 16.5 16.5 13.5 16.5 L 3.5 16.5 C 0.5 16.5 0.5 16.5 0.5 13.5 L 0.5 3.5 C 0.5 0.5 0.5 0.5 3.5 0.5"></path><text x="8" style="font-size:12px;color:#333333;fill:#333333;" y="20"></text></g></svg>